<svg width="166" height="54" viewBox="0 0 166 54" fill="none" xmlns="http://www.w3.org/2000/svg">
<rect y="12.5" width="29" height="29" rx="4" fill="#CCA9FF"/>
<path d="M19.8203 18.5L21.8691 20.7041L18.7842 25.6826L17.918 27.0811L18.8584 28.4297L21.8818 32.7666L19.7051 35.5H9.5V18.5H19.8203Z" stroke="#01003D" stroke-width="5"/>
<path d="M39.4766 12.541H46.8594C49.1914 12.541 50.9551 12.7227 52.1504 13.0859C53.3574 13.4492 54.3301 14.1875 55.0684 15.3008C55.8066 16.4023 56.1758 18.1836 56.1758 20.6445C56.1758 22.3086 55.9121 23.4688 55.3848 24.125C54.8691 24.7812 53.8438 25.2852 52.3086 25.6367C54.0195 26.0234 55.1797 26.668 55.7891 27.5703C56.3984 28.4609 56.7031 29.832 56.7031 31.6836V34.3203C56.7031 36.2422 56.4805 37.666 56.0352 38.5918C55.6016 39.5176 54.9043 40.1504 53.9434 40.4902C52.9824 40.8301 51.0137 41 48.0371 41H39.4766V12.541ZM46.877 17.4102V23.7383C47.1934 23.7266 47.4395 23.7207 47.6152 23.7207C48.3418 23.7207 48.8047 23.5449 49.0039 23.1934C49.2031 22.8301 49.3027 21.8047 49.3027 20.1172C49.3027 19.2266 49.2207 18.6055 49.0566 18.2539C48.8926 17.8906 48.6758 17.6621 48.4062 17.5684C48.1484 17.4746 47.6387 17.4219 46.877 17.4102ZM46.877 28.168V36.1309C47.9199 36.0957 48.582 35.9316 48.8633 35.6387C49.1562 35.3457 49.3027 34.625 49.3027 33.4766V30.8223C49.3027 29.6035 49.1738 28.8652 48.916 28.6074C48.6582 28.3496 47.9785 28.2031 46.877 28.168ZM66.5898 26.709H59.9277V25.1445C59.9277 23.3398 60.1327 21.9512 60.5429 20.9785C60.9648 19.9941 61.8027 19.127 63.0566 18.377C64.3105 17.627 65.9394 17.252 67.9433 17.252C70.3456 17.252 72.1562 17.6797 73.3749 18.5352C74.5937 19.3789 75.3261 20.4219 75.5722 21.6641C75.8183 22.8945 75.9413 25.4375 75.9413 29.293V41H69.0331V38.9258C68.5995 39.7578 68.037 40.3848 67.3456 40.8066C66.6659 41.2168 65.8515 41.4219 64.9023 41.4219C63.6601 41.4219 62.5175 41.0762 61.4745 40.3848C60.4433 39.6816 59.9277 38.1523 59.9277 35.7969V33.8809C59.9277 32.1348 60.203 30.9453 60.7538 30.3125C61.3046 29.6797 62.6698 28.9414 64.8495 28.0977C67.1816 27.1836 68.4296 26.5684 68.5937 26.252C68.7577 25.9355 68.8398 25.291 68.8398 24.3184C68.8398 23.0996 68.746 22.3086 68.5585 21.9453C68.3827 21.5703 68.0839 21.3828 67.662 21.3828C67.1816 21.3828 66.8827 21.541 66.7655 21.8574C66.6484 22.1621 66.5898 22.9648 66.5898 24.2656V26.709ZM68.8398 29.9082C67.703 30.7402 67.0409 31.4375 66.8534 32C66.6777 32.5625 66.5898 33.3711 66.5898 34.4258C66.5898 35.6328 66.6659 36.4121 66.8183 36.7637C66.9823 37.1152 67.2987 37.291 67.7675 37.291C68.2128 37.291 68.4999 37.1562 68.6288 36.8867C68.7695 36.6055 68.8398 35.8789 68.8398 34.707V29.9082ZM93.9666 25.127H87.6737V23.8613C87.6737 22.7832 87.6092 22.1035 87.4803 21.8223C87.3631 21.5293 87.0584 21.3828 86.5662 21.3828C86.1678 21.3828 85.869 21.5176 85.6698 21.7871C85.4705 22.0449 85.3709 22.4375 85.3709 22.9648C85.3709 23.6797 85.4178 24.207 85.5116 24.5469C85.617 24.875 85.9159 25.2383 86.408 25.6367C86.912 26.0352 87.9373 26.6152 89.4842 27.377C91.5467 28.3848 92.9002 29.334 93.5448 30.2246C94.1893 31.1152 94.5116 32.4102 94.5116 34.1094C94.5116 36.0078 94.2655 37.4434 93.7733 38.416C93.2811 39.377 92.4549 40.1211 91.2948 40.6484C90.1463 41.1641 88.7577 41.4219 87.1287 41.4219C85.3241 41.4219 83.7772 41.1406 82.4881 40.5781C81.2108 40.0156 80.3319 39.2539 79.8514 38.293C79.3709 37.332 79.1307 35.8789 79.1307 33.9336V32.8086H85.4237V34.2852C85.4237 35.5391 85.4998 36.3535 85.6522 36.7285C85.8162 37.1035 86.1327 37.291 86.6014 37.291C87.1053 37.291 87.4569 37.168 87.6561 36.9219C87.8553 36.6641 87.9549 36.1309 87.9549 35.3223C87.9549 34.209 87.826 33.5117 87.5682 33.2305C87.2987 32.9492 85.9217 32.1172 83.4373 30.7344C81.3514 29.5625 80.0799 28.502 79.6229 27.5527C79.1659 26.5918 78.9373 25.4551 78.9373 24.1426C78.9373 22.2793 79.1834 20.9082 79.6756 20.0293C80.1678 19.1387 80.9998 18.4531 82.1717 17.9727C83.3553 17.4922 84.7264 17.252 86.285 17.252C87.8319 17.252 89.1444 17.4512 90.2225 17.8496C91.3123 18.2363 92.1444 18.752 92.7186 19.3965C93.3045 20.041 93.6561 20.6387 93.7733 21.1895C93.9022 21.7402 93.9666 22.6016 93.9666 23.7734V25.127ZM111.992 25.127H105.699V23.8613C105.699 22.7832 105.635 22.1035 105.506 21.8223C105.388 21.5293 105.084 21.3828 104.592 21.3828C104.193 21.3828 103.894 21.5176 103.695 21.7871C103.496 22.0449 103.396 22.4375 103.396 22.9648C103.396 23.6797 103.443 24.207 103.537 24.5469C103.642 24.875 103.941 25.2383 104.433 25.6367C104.937 26.0352 105.963 26.6152 107.51 27.377C109.572 28.3848 110.926 29.334 111.57 30.2246C112.215 31.1152 112.537 32.4102 112.537 34.1094C112.537 36.0078 112.291 37.4434 111.799 38.416C111.306 39.377 110.48 40.1211 109.32 40.6484C108.172 41.1641 106.783 41.4219 105.154 41.4219C103.349 41.4219 101.803 41.1406 100.513 40.5781C99.2361 40.0156 98.3572 39.2539 97.8767 38.293C97.3963 37.332 97.156 35.8789 97.156 33.9336V32.8086H103.449V34.2852C103.449 35.5391 103.525 36.3535 103.678 36.7285C103.842 37.1035 104.158 37.291 104.627 37.291C105.131 37.291 105.482 37.168 105.681 36.9219C105.881 36.6641 105.98 36.1309 105.98 35.3223C105.98 34.209 105.851 33.5117 105.594 33.2305C105.324 32.9492 103.947 32.1172 101.463 30.7344C99.3767 29.5625 98.1052 28.502 97.6482 27.5527C97.1912 26.5918 96.9627 25.4551 96.9627 24.1426C96.9627 22.2793 97.2088 20.9082 97.7009 20.0293C98.1931 19.1387 99.0252 18.4531 100.197 17.9727C101.381 17.4922 102.752 17.252 104.31 17.252C105.857 17.252 107.17 17.4512 108.248 17.8496C109.338 18.2363 110.17 18.752 110.744 19.3965C111.33 20.041 111.681 20.6387 111.799 21.1895C111.928 21.7402 111.992 22.6016 111.992 23.7734V25.127ZM121.861 26.709H115.199V25.1445C115.199 23.3398 115.404 21.9512 115.814 20.9785C116.236 19.9941 117.074 19.127 118.328 18.377C119.582 17.627 121.211 17.252 123.215 17.252C125.617 17.252 127.427 17.6797 128.646 18.5352C129.865 19.3789 130.597 20.4219 130.843 21.6641C131.09 22.8945 131.213 25.4375 131.213 29.293V41H124.304V38.9258C123.871 39.7578 123.308 40.3848 122.617 40.8066C121.937 41.2168 121.123 41.4219 120.174 41.4219C118.931 41.4219 117.789 41.0762 116.746 40.3848C115.715 39.6816 115.199 38.1523 115.199 35.7969V33.8809C115.199 32.1348 115.474 30.9453 116.025 30.3125C116.576 29.6797 117.941 28.9414 120.121 28.0977C122.453 27.1836 123.701 26.5684 123.865 26.252C124.029 25.9355 124.111 25.291 124.111 24.3184C124.111 23.0996 124.017 22.3086 123.83 21.9453C123.654 21.5703 123.355 21.3828 122.933 21.3828C122.453 21.3828 122.154 21.541 122.037 21.8574C121.92 22.1621 121.861 22.9648 121.861 24.2656V26.709ZM124.111 29.9082C122.974 30.7402 122.312 31.4375 122.125 32C121.949 32.5625 121.861 33.3711 121.861 34.4258C121.861 35.6328 121.937 36.4121 122.09 36.7637C122.254 37.1152 122.57 37.291 123.039 37.291C123.484 37.291 123.771 37.1562 123.9 36.8867C124.041 36.6055 124.111 35.8789 124.111 34.707V29.9082ZM141.838 17.6738L141.556 20.7324C142.588 18.541 144.082 17.3809 146.039 17.252V25.4609C144.738 25.4609 143.783 25.6367 143.173 25.9883C142.564 26.3398 142.189 26.832 142.048 27.4648C141.908 28.0859 141.838 29.5273 141.838 31.7891V41H134.736V17.6738H141.838ZM164.257 17.6738L162.218 34.5488C161.902 37.2207 161.632 39.043 161.41 40.0156C161.199 40.9883 160.841 41.791 160.337 42.4238C159.834 43.0566 159.13 43.5195 158.228 43.8125C157.337 44.1172 155.908 44.2695 153.939 44.2695H149.632V40.543C150.734 40.543 151.443 40.4902 151.759 40.3848C152.076 40.2676 152.234 40.0156 152.234 39.6289C152.234 39.4414 152.087 38.627 151.794 37.1855L147.91 17.6738H154.361L156.681 33.4062L157.806 17.6738H164.257Z" fill="#CCA9FF"/>
</svg>
