<svg width="45" height="45" viewBox="0 0 45 45" fill="none" xmlns="http://www.w3.org/2000/svg">
<g filter="url(#filter0_ii_225_583)">
<path d="M22.5 0C34.9264 0 45 10.0736 45 22.5C45 34.9264 34.9264 45 22.5 45C10.0736 45 0 34.9264 0 22.5C0 10.0736 10.0736 0 22.5 0ZM10.9834 9.50781C10.6059 9.54435 10.2526 9.71042 9.98438 9.97852C9.71619 10.2467 9.54929 10.6001 9.5127 10.9775C9.47617 11.3551 9.57229 11.7342 9.78418 12.0488L9.79883 12.0703L9.81543 12.0898L9.96289 12.2666L9.97754 12.2842L9.99316 12.2998L20.1904 22.4961L9.99902 32.6885C9.84301 32.8392 9.71849 33.0195 9.63281 33.2188C9.54709 33.4183 9.50189 33.6334 9.5 33.8506C9.49813 34.0677 9.53985 34.2834 9.62207 34.4844C9.70431 34.6852 9.82605 34.8681 9.97949 35.0215C10.133 35.1748 10.3158 35.2958 10.5166 35.3779C10.7174 35.4601 10.9324 35.5018 11.1494 35.5C11.3666 35.4981 11.5817 35.4529 11.7812 35.3672C11.978 35.2826 12.1561 35.16 12.3057 35.0068L22.5039 24.8076L32.7041 35.0068L32.7207 35.0244L32.7402 35.04L32.917 35.1855L32.9365 35.2012L32.958 35.2158C33.2725 35.4243 33.65 35.5172 34.0254 35.4795C34.4007 35.4418 34.7518 35.2755 35.0186 35.0088C35.2853 34.742 35.4516 34.391 35.4893 34.0156C35.5269 33.6402 35.433 33.2637 35.2246 32.9492L35.2109 32.9277L35.1943 32.9082L35.0498 32.7305L35.0342 32.7119L35.0166 32.6943L24.8164 22.4961L35.0166 12.2998L35.0342 12.2832L35.0498 12.2637L35.1943 12.0869L35.21 12.0674L35.2236 12.0479C35.434 11.7334 35.529 11.355 35.4922 10.9785C35.4553 10.6021 35.2887 10.25 35.0215 9.98242C34.7542 9.71493 34.4026 9.54817 34.0264 9.51074C33.6499 9.47337 33.2718 9.5675 32.957 9.77734L32.9346 9.79199L32.9141 9.80957L32.7373 9.95703L32.7197 9.97168L32.7041 9.9873L22.5039 20.1836L12.3057 9.9873L12.29 9.97168L12.2725 9.95703L12.0957 9.80957L12.0752 9.79297L12.0547 9.77832L11.9336 9.70508C11.6451 9.54524 11.3139 9.47586 10.9834 9.50781Z" fill="#FFA9E1"/>
</g>
<defs>
<filter id="filter0_ii_225_583" x="-1" y="-3" width="46" height="52" filterUnits="userSpaceOnUse" color-interpolation-filters="sRGB">
<feFlood flood-opacity="0" result="BackgroundImageFix"/>
<feBlend mode="normal" in="SourceGraphic" in2="BackgroundImageFix" result="shape"/>
<feColorMatrix in="SourceAlpha" type="matrix" values="0 0 0 0 0 0 0 0 0 0 0 0 0 0 0 0 0 0 127 0" result="hardAlpha"/>
<feOffset dy="4"/>
<feGaussianBlur stdDeviation="3.5"/>
<feComposite in2="hardAlpha" operator="arithmetic" k2="-1" k3="1"/>
<feColorMatrix type="matrix" values="0 0 0 0 1 0 0 0 0 0.331731 0 0 0 0 0.732692 0 0 0 1 0"/>
<feBlend mode="normal" in2="shape" result="effect1_innerShadow_225_583"/>
<feColorMatrix in="SourceAlpha" type="matrix" values="0 0 0 0 0 0 0 0 0 0 0 0 0 0 0 0 0 0 127 0" result="hardAlpha"/>
<feOffset dx="-1" dy="-3"/>
<feGaussianBlur stdDeviation="2.5"/>
<feComposite in2="hardAlpha" operator="arithmetic" k2="-1" k3="1"/>
<feColorMatrix type="matrix" values="0 0 0 0 0.741987 0 0 0 0 0.0725339 0 0 0 0 0.652727 0 0 0 0.61 0"/>
<feBlend mode="normal" in2="effect1_innerShadow_225_583" result="effect2_innerShadow_225_583"/>
</filter>
</defs>
</svg>
