<svg width="40" height="40" viewBox="0 0 40 40" fill="none" xmlns="http://www.w3.org/2000/svg">
<g clip-path="url(#clip0_28_178)">
<path d="M27.7156 27.5344C24.9031 33.2844 19.9781 37.1531 13.4625 38.425C12.4635 38.6699 11.4379 38.7895 10.4094 38.7813C6.65937 38.7813 3.22187 37.2188 1.55312 34.6594C-0.687505 31.25 -1.45 24.0219 5.9375 18.675C6.0875 19.4906 6.39375 20.6094 6.59687 21.2719C5.14666 22.3493 3.95961 23.7415 3.125 25.3438C1.75 28.0438 1.90312 30.7406 3.53125 33.2344C4.65625 34.9156 6.4375 35.9375 8.72812 36.25C11.5892 36.6121 14.4917 36.0655 17.025 34.6875C20.9969 32.6 23.6437 30.1063 25.375 26.6969C24.8855 26.191 24.5957 25.5249 24.5594 24.8219C24.5332 24.0675 24.8074 23.3335 25.3218 22.781C25.8362 22.2285 26.5488 21.9027 27.3031 21.875H27.4094C28.1431 21.8713 28.8502 22.1499 29.3843 22.653C29.9184 23.1561 30.2386 23.8453 30.2788 24.5779C30.3189 25.3106 30.0759 26.0306 29.6 26.5891C29.124 27.1475 28.4516 27.5016 27.7219 27.5781L27.7156 27.5344ZM36.675 21.2219C40.4906 25.5469 40.5937 30.6375 39.1187 33.5906C37.7437 36.2875 34.1187 38.9875 29.2437 38.9875C26.968 38.9409 24.7293 38.4025 22.6812 37.4094C23.3969 36.9 24.4125 36.0844 24.9719 35.575C26.5511 36.2595 28.2508 36.6228 29.9719 36.6438C33.1281 36.6438 35.5187 35.1688 36.9437 32.4719C37.8594 30.6906 37.9125 28.6031 37.0469 26.4656C35.9849 23.7761 34.0948 21.4942 31.65 19.95C28.4427 17.788 24.6617 16.6354 20.7937 16.6406H19.8781C19.6646 17.1338 19.3173 17.5574 18.8754 17.8634C18.4336 18.1694 17.9149 18.3455 17.3781 18.3719H17.2812C16.5388 18.3628 15.8292 18.0646 15.303 17.5406C14.7769 17.0167 14.4758 16.3083 14.4636 15.5659C14.4514 14.8235 14.7291 14.1055 15.2377 13.5646C15.7463 13.0236 16.4457 12.7023 17.1875 12.6688H17.2906C17.8075 12.6691 18.3143 12.812 18.7553 13.0816C19.1964 13.3511 19.5546 13.737 19.7906 14.1969H20.6062C27.1062 14.1969 32.8125 16.6906 36.675 21.2219ZM10.8156 28.4094C10.7619 27.8904 10.8876 27.3687 11.1719 26.9313C8.32187 21.9938 6.79687 15.7344 9.1375 9.21876C10.8156 4.32189 15.0406 1.01251 19.6219 1.01251C24.5094 1.01251 29.6 5.29064 30.2094 13.5344C29.4469 13.2813 28.3344 12.9094 27.6656 12.7719C27.5 10.075 25.2219 3.35626 19.825 3.45626C17.8906 3.50939 15.0406 4.42501 13.575 6.30626C11.7623 8.55206 10.7076 11.3144 10.5625 14.1969C10.2187 18.1493 11.1461 22.1083 13.2094 25.4969C13.3233 25.4553 13.4447 25.4382 13.5656 25.4469H13.6656C14.4215 25.4332 15.1518 25.7204 15.696 26.2452C16.2401 26.77 16.5535 27.4895 16.5672 28.2453C16.5809 29.0012 16.2937 29.7315 15.7689 30.2757C15.2441 30.8198 14.5246 31.1332 13.7687 31.1469H13.6656C12.9282 31.1443 12.2203 30.8572 11.6893 30.3454C11.1584 29.8337 10.8454 29.1368 10.8156 28.4V28.4094Z" fill="#764ABC"/>
</g>
<defs>
<clipPath id="clip0_28_178">
<rect width="40" height="40" fill="white"/>
</clipPath>
</defs>
</svg>
