<svg width="461" height="205" viewBox="0 0 461 205" fill="none" xmlns="http://www.w3.org/2000/svg">
<rect width="461" height="205" rx="14" fill="#153114"/>
<path d="M28.392 126V40.1818H58.3949C64.3731 40.1818 69.3037 41.2154 73.1868 43.2827C77.0698 45.322 79.9612 48.0736 81.8608 51.5376C83.7604 54.9737 84.7102 58.7869 84.7102 62.9773C84.7102 66.6648 84.0537 69.7098 82.7408 72.1122C81.4557 74.5147 79.7517 76.4143 77.6286 77.8111C75.5334 79.2079 73.2566 80.2415 70.7983 80.9119V81.75C73.4242 81.9176 76.0642 82.8395 78.718 84.5156C81.3719 86.1918 83.5928 88.5942 85.3807 91.723C87.1686 94.8518 88.0625 98.679 88.0625 103.205C88.0625 107.507 87.0848 111.376 85.1293 114.812C83.1738 118.248 80.0869 120.972 75.8686 122.983C71.6503 124.994 66.161 126 59.4006 126H28.392ZM38.7841 116.781H59.4006C66.1889 116.781 71.0078 115.468 73.8572 112.842C76.7346 110.188 78.1733 106.976 78.1733 103.205C78.1733 100.299 77.433 97.6174 75.9524 95.1591C74.4718 92.6728 72.3627 90.6894 69.625 89.2088C66.8873 87.7003 63.6468 86.946 59.9034 86.946H38.7841V116.781ZM38.7841 77.8949H58.0597C61.1884 77.8949 64.0099 77.2803 66.5241 76.0511C69.0663 74.822 71.0777 73.09 72.5582 70.8551C74.0668 68.6203 74.821 65.9943 74.821 62.9773C74.821 59.206 73.5081 56.0073 70.8821 53.3814C68.2562 50.7275 64.0938 49.4006 58.3949 49.4006H38.7841V77.8949ZM108.658 126H97.7631L129.275 40.1818H140.002L171.513 126H160.618L134.973 53.7585H134.303L108.658 126ZM112.681 92.4773H156.596V101.696H112.681V92.4773ZM184.88 126V40.1818H195.272V116.781H235.164V126H184.88ZM260.191 126H249.296L280.808 40.1818H291.535L323.046 126H312.151L286.507 53.7585H285.836L260.191 126ZM264.214 92.4773H308.129V101.696H264.214V92.4773ZM362.896 126H336.414V40.1818H364.07C372.395 40.1818 379.518 41.8999 385.441 45.3359C391.363 48.7441 395.902 53.6468 399.059 60.044C402.216 66.4134 403.794 74.0398 403.794 82.9233C403.794 91.8627 402.202 99.5589 399.017 106.012C395.833 112.437 391.195 117.382 385.105 120.846C379.015 124.282 371.612 126 362.896 126ZM346.806 116.781H362.226C369.322 116.781 375.202 115.412 379.867 112.675C384.533 109.937 388.011 106.04 390.301 100.984C392.592 95.9273 393.737 89.9072 393.737 82.9233C393.737 75.9953 392.606 70.031 390.343 65.0305C388.08 60.0021 384.7 56.147 380.203 53.4652C375.705 50.7554 370.104 49.4006 363.399 49.4006H346.806V116.781ZM431.618 40.1818V126H421.226V40.1818H431.618Z" fill="#FFF2E6"/>
<path d="M43.4176 160.636C43.2429 159.161 42.5343 158.016 41.2919 157.2C40.0495 156.385 38.5256 155.977 36.7202 155.977C35.4001 155.977 34.245 156.191 33.255 156.618C32.2746 157.045 31.5078 157.632 30.9545 158.38C30.411 159.127 30.1392 159.976 30.1392 160.928C30.1392 161.723 30.3285 162.408 30.707 162.98C31.0953 163.543 31.5903 164.014 32.1921 164.393C32.7939 164.762 33.4248 165.067 34.0849 165.31C34.7449 165.543 35.3516 165.732 35.9048 165.878L38.9332 166.693C39.7098 166.897 40.5736 167.179 41.5249 167.538C42.4858 167.897 43.4031 168.387 44.2766 169.008C45.1599 169.62 45.8879 170.406 46.4606 171.367C47.0333 172.328 47.3196 173.507 47.3196 174.905C47.3196 176.516 46.8974 177.972 46.0529 179.273C45.2182 180.573 43.9951 181.607 42.3839 182.374C40.7823 183.141 38.8362 183.524 36.5455 183.524C34.41 183.524 32.561 183.18 30.9982 182.49C29.4452 181.801 28.2222 180.84 27.3292 179.608C26.4459 178.375 25.946 176.943 25.8295 175.312H29.5568C29.6539 176.438 30.0324 177.37 30.6925 178.108C31.3622 178.836 32.2067 179.379 33.2259 179.739C34.2547 180.088 35.3613 180.263 36.5455 180.263C37.9238 180.263 39.1613 180.04 40.2582 179.593C41.355 179.137 42.2237 178.506 42.8643 177.7C43.505 176.885 43.8253 175.934 43.8253 174.847C43.8253 173.857 43.5487 173.051 42.9954 172.43C42.4421 171.808 41.7141 171.304 40.8114 170.915C39.9087 170.527 38.9332 170.187 37.8849 169.896L34.2159 168.848C31.8864 168.178 30.0421 167.222 28.6832 165.98C27.3243 164.737 26.6449 163.112 26.6449 161.102C26.6449 159.433 27.0962 157.977 27.9989 156.734C28.9113 155.482 30.1344 154.512 31.668 153.822C33.2113 153.124 34.9342 152.774 36.8366 152.774C38.7585 152.774 40.4669 153.119 41.9616 153.808C43.4564 154.487 44.6406 155.419 45.5142 156.603C46.3975 157.788 46.8634 159.132 46.9119 160.636H43.4176ZM52.7904 191.386V160.636H56.11V164.189H56.5177C56.77 163.801 57.1195 163.306 57.566 162.704C58.0222 162.092 58.6725 161.549 59.517 161.073C60.3711 160.588 61.5262 160.345 62.9822 160.345C64.8652 160.345 66.525 160.816 67.9616 161.757C69.3981 162.699 70.5192 164.034 71.3248 165.761C72.1305 167.489 72.5333 169.527 72.5333 171.876C72.5333 174.245 72.1305 176.298 71.3248 178.035C70.5192 179.763 69.403 181.102 67.9761 182.054C66.5493 182.995 64.904 183.466 63.0404 183.466C61.6038 183.466 60.4536 183.228 59.5898 182.752C58.7259 182.267 58.061 181.719 57.5951 181.107C57.1292 180.486 56.77 179.972 56.5177 179.564H56.2265V191.386H52.7904ZM56.1682 171.818C56.1682 173.507 56.4157 174.997 56.9108 176.288C57.4058 177.569 58.1289 178.574 59.0802 179.302C60.0314 180.02 61.1962 180.379 62.5745 180.379C64.011 180.379 65.2098 180.001 66.1707 179.244C67.1414 178.477 67.8693 177.448 68.3547 176.157C68.8497 174.856 69.0972 173.41 69.0972 171.818C69.0972 170.246 68.8546 168.829 68.3692 167.567C67.8936 166.295 67.1705 165.291 66.1998 164.553C65.2389 163.806 64.0305 163.432 62.5745 163.432C61.1768 163.432 60.0023 163.786 59.051 164.495C58.0998 165.194 57.3815 166.174 56.8962 167.436C56.4109 168.688 56.1682 170.149 56.1682 171.818ZM87.1512 183.466C84.9964 183.466 83.1376 182.99 81.5748 182.039C80.0218 181.078 78.8231 179.739 77.9786 178.021C77.1439 176.293 76.7265 174.284 76.7265 171.993C76.7265 169.702 77.1439 167.683 77.9786 165.936C78.8231 164.179 79.9975 162.811 81.502 161.83C83.0162 160.84 84.7828 160.345 86.8018 160.345C87.9665 160.345 89.1167 160.539 90.2524 160.928C91.3881 161.316 92.4218 161.947 93.3536 162.82C94.2854 163.684 95.028 164.83 95.5812 166.256C96.1345 167.683 96.4111 169.44 96.4111 171.527V172.983H79.1725V170.013H92.9168C92.9168 168.751 92.6644 167.625 92.1597 166.635C91.6647 165.645 90.9561 164.864 90.034 164.291C89.1216 163.718 88.0442 163.432 86.8018 163.432C85.4332 163.432 84.249 163.772 83.2492 164.451C82.2591 165.121 81.4972 165.994 80.9633 167.072C80.4295 168.149 80.1626 169.304 80.1626 170.537V172.517C80.1626 174.206 80.4537 175.638 81.0361 176.812C81.6282 177.977 82.4484 178.865 83.4967 179.477C84.545 180.078 85.7632 180.379 87.1512 180.379C88.0539 180.379 88.8692 180.253 89.5972 180.001C90.3349 179.739 90.9707 179.35 91.5045 178.836C92.0384 178.312 92.4509 177.661 92.7421 176.885L96.0617 177.817C95.7123 178.943 95.125 179.933 94.3 180.787C93.4749 181.631 92.4558 182.291 91.2425 182.767C90.0291 183.233 88.6654 183.466 87.1512 183.466ZM85.0546 157.608L88.6072 150.852H92.6256L88.083 157.608H85.0546ZM110.723 183.466C108.627 183.466 106.821 182.971 105.307 181.981C103.793 180.991 102.628 179.627 101.813 177.89C100.997 176.152 100.59 174.167 100.59 171.935C100.59 169.663 101.007 167.659 101.842 165.922C102.686 164.174 103.861 162.811 105.365 161.83C106.88 160.84 108.646 160.345 110.665 160.345C112.237 160.345 113.655 160.636 114.916 161.219C116.178 161.801 117.212 162.616 118.018 163.665C118.823 164.713 119.323 165.936 119.517 167.334H116.081C115.819 166.315 115.237 165.412 114.334 164.626C113.441 163.83 112.237 163.432 110.723 163.432C109.384 163.432 108.209 163.781 107.2 164.48C106.2 165.169 105.419 166.145 104.856 167.407C104.302 168.659 104.026 170.129 104.026 171.818C104.026 173.546 104.298 175.05 104.841 176.332C105.394 177.613 106.171 178.608 107.171 179.316C108.18 180.025 109.364 180.379 110.723 180.379C111.616 180.379 112.427 180.224 113.155 179.913C113.883 179.603 114.499 179.156 115.004 178.574C115.509 177.991 115.868 177.293 116.081 176.477H119.517C119.323 177.797 118.843 178.986 118.076 180.044C117.319 181.093 116.314 181.927 115.062 182.549C113.82 183.16 112.373 183.466 110.723 183.466ZM124.54 183V160.636H127.976V183H124.54ZM126.288 156.909C125.618 156.909 125.04 156.681 124.555 156.225C124.079 155.769 123.842 155.22 123.842 154.58C123.842 153.939 124.079 153.391 124.555 152.934C125.04 152.478 125.618 152.25 126.288 152.25C126.957 152.25 127.53 152.478 128.006 152.934C128.491 153.391 128.734 153.939 128.734 154.58C128.734 155.22 128.491 155.769 128.006 156.225C127.53 156.681 126.957 156.909 126.288 156.909ZM140.851 183.524C139.434 183.524 138.148 183.257 136.993 182.723C135.837 182.18 134.92 181.398 134.241 180.379C133.561 179.35 133.222 178.108 133.222 176.652C133.222 175.371 133.474 174.332 133.979 173.536C134.483 172.731 135.158 172.1 136.002 171.643C136.847 171.187 137.779 170.848 138.798 170.624C139.827 170.391 140.861 170.207 141.899 170.071C143.258 169.896 144.36 169.765 145.204 169.678C146.058 169.581 146.68 169.421 147.068 169.197C147.466 168.974 147.665 168.586 147.665 168.033V167.916C147.665 166.48 147.272 165.363 146.485 164.567C145.709 163.772 144.53 163.374 142.947 163.374C141.307 163.374 140.021 163.733 139.089 164.451C138.157 165.169 137.502 165.936 137.124 166.751L133.862 165.587C134.445 164.228 135.221 163.17 136.192 162.413C137.172 161.646 138.24 161.112 139.395 160.811C140.56 160.5 141.705 160.345 142.831 160.345C143.549 160.345 144.374 160.433 145.306 160.607C146.248 160.772 147.155 161.117 148.029 161.641C148.912 162.165 149.645 162.956 150.227 164.014C150.81 165.072 151.101 166.489 151.101 168.266V183H147.665V179.972H147.49C147.257 180.457 146.869 180.976 146.325 181.529C145.782 182.083 145.059 182.554 144.156 182.942C143.253 183.33 142.152 183.524 140.851 183.524ZM141.375 180.438C142.734 180.438 143.879 180.171 144.811 179.637C145.753 179.103 146.461 178.414 146.937 177.569C147.422 176.725 147.665 175.837 147.665 174.905V171.76C147.519 171.935 147.199 172.095 146.704 172.24C146.219 172.376 145.656 172.498 145.015 172.604C144.384 172.701 143.768 172.789 143.166 172.866C142.574 172.934 142.093 172.993 141.724 173.041C140.831 173.158 139.997 173.347 139.22 173.609C138.453 173.861 137.832 174.245 137.357 174.759C136.891 175.264 136.658 175.953 136.658 176.827C136.658 178.021 137.099 178.923 137.983 179.535C138.876 180.137 140.006 180.438 141.375 180.438ZM160.809 153.182V183H157.372V153.182H160.809ZM167.102 183V160.636H170.538V183H167.102ZM168.849 156.909C168.179 156.909 167.602 156.681 167.116 156.225C166.641 155.769 166.403 155.22 166.403 154.58C166.403 153.939 166.641 153.391 167.116 152.934C167.602 152.478 168.179 152.25 168.849 152.25C169.519 152.25 170.092 152.478 170.567 152.934C171.052 153.391 171.295 153.939 171.295 154.58C171.295 155.22 171.052 155.769 170.567 156.225C170.092 156.681 169.519 156.909 168.849 156.909ZM186.557 160.636V163.548H174.968V160.636H186.557ZM178.346 155.278H181.782V176.594C181.782 177.564 181.922 178.292 182.204 178.778C182.495 179.253 182.864 179.574 183.31 179.739C183.767 179.894 184.247 179.972 184.752 179.972C185.13 179.972 185.441 179.952 185.684 179.913C185.926 179.865 186.12 179.826 186.266 179.797L186.965 182.884C186.732 182.971 186.407 183.058 185.989 183.146C185.572 183.243 185.043 183.291 184.402 183.291C183.432 183.291 182.481 183.083 181.549 182.665C180.627 182.248 179.86 181.612 179.248 180.758C178.647 179.904 178.346 178.826 178.346 177.526V155.278ZM200.862 183.466C198.707 183.466 196.849 182.99 195.286 182.039C193.733 181.078 192.534 179.739 191.69 178.021C190.855 176.293 190.437 174.284 190.437 171.993C190.437 169.702 190.855 167.683 191.69 165.936C192.534 164.179 193.708 162.811 195.213 161.83C196.727 160.84 198.494 160.345 200.513 160.345C201.677 160.345 202.828 160.539 203.963 160.928C205.099 161.316 206.133 161.947 207.065 162.82C207.996 163.684 208.739 164.83 209.292 166.256C209.845 167.683 210.122 169.44 210.122 171.527V172.983H192.883V170.013H206.628C206.628 168.751 206.375 167.625 205.871 166.635C205.376 165.645 204.667 164.864 203.745 164.291C202.833 163.718 201.755 163.432 200.513 163.432C199.144 163.432 197.96 163.772 196.96 164.451C195.97 165.121 195.208 165.994 194.674 167.072C194.14 168.149 193.873 169.304 193.873 170.537V172.517C193.873 174.206 194.165 175.638 194.747 176.812C195.339 177.977 196.159 178.865 197.208 179.477C198.256 180.078 199.474 180.379 200.862 180.379C201.765 180.379 202.58 180.253 203.308 180.001C204.046 179.739 204.682 179.35 205.215 178.836C205.749 178.312 206.162 177.661 206.453 176.885L209.773 177.817C209.423 178.943 208.836 179.933 208.011 180.787C207.186 181.631 206.167 182.291 204.953 182.767C203.74 183.233 202.376 183.466 200.862 183.466ZM198.766 157.608L202.318 150.852H206.337L201.794 157.608H198.766ZM231.19 165.645L228.103 166.518C227.909 166.004 227.623 165.504 227.244 165.019C226.875 164.524 226.371 164.116 225.73 163.796C225.089 163.475 224.269 163.315 223.269 163.315C221.901 163.315 220.76 163.631 219.848 164.262C218.945 164.883 218.494 165.674 218.494 166.635C218.494 167.489 218.804 168.164 219.426 168.659C220.047 169.154 221.018 169.566 222.338 169.896L225.657 170.712C227.657 171.197 229.147 171.94 230.127 172.939C231.107 173.929 231.598 175.206 231.598 176.768C231.598 178.05 231.229 179.195 230.491 180.205C229.763 181.214 228.744 182.01 227.434 182.592C226.123 183.175 224.599 183.466 222.862 183.466C220.581 183.466 218.693 182.971 217.198 181.981C215.703 180.991 214.757 179.545 214.359 177.642L217.62 176.827C217.931 178.03 218.518 178.933 219.382 179.535C220.256 180.137 221.396 180.438 222.804 180.438C224.405 180.438 225.677 180.098 226.618 179.418C227.569 178.729 228.045 177.904 228.045 176.943C228.045 176.167 227.773 175.516 227.23 174.992C226.686 174.458 225.851 174.06 224.725 173.798L220.998 172.925C218.95 172.439 217.446 171.687 216.485 170.668C215.533 169.639 215.058 168.353 215.058 166.81C215.058 165.548 215.412 164.432 216.121 163.461C216.839 162.49 217.814 161.728 219.047 161.175C220.29 160.622 221.697 160.345 223.269 160.345C225.483 160.345 227.22 160.83 228.482 161.801C229.753 162.772 230.656 164.053 231.19 165.645ZM251.737 153.182V183H248.301V153.182H251.737ZM258.031 183V160.636H261.467V183H258.031ZM259.778 156.909C259.108 156.909 258.531 156.681 258.045 156.225C257.57 155.769 257.332 155.22 257.332 154.58C257.332 153.939 257.57 153.391 258.045 152.934C258.531 152.478 259.108 152.25 259.778 152.25C260.448 152.25 261.02 152.478 261.496 152.934C261.981 153.391 262.224 153.939 262.224 154.58C262.224 155.22 261.981 155.769 261.496 156.225C261.02 156.681 260.448 156.909 259.778 156.909ZM268.226 183V153.182H271.662V164.189H271.953C272.206 163.801 272.555 163.306 273.002 162.704C273.458 162.092 274.108 161.549 274.953 161.073C275.807 160.588 276.962 160.345 278.418 160.345C280.301 160.345 281.961 160.816 283.397 161.757C284.834 162.699 285.955 164.034 286.76 165.761C287.566 167.489 287.969 169.527 287.969 171.876C287.969 174.245 287.566 176.298 286.76 178.035C285.955 179.763 284.839 181.102 283.412 182.054C281.985 182.995 280.34 183.466 278.476 183.466C277.039 183.466 275.889 183.228 275.025 182.752C274.162 182.267 273.497 181.719 273.031 181.107C272.565 180.486 272.206 179.972 271.953 179.564H271.546V183H268.226ZM271.604 171.818C271.604 173.507 271.851 174.997 272.346 176.288C272.841 177.569 273.565 178.574 274.516 179.302C275.467 180.02 276.632 180.379 278.01 180.379C279.447 180.379 280.645 180.001 281.606 179.244C282.577 178.477 283.305 177.448 283.79 176.157C284.285 174.856 284.533 173.41 284.533 171.818C284.533 170.246 284.29 168.829 283.805 167.567C283.329 166.295 282.606 165.291 281.635 164.553C280.675 163.806 279.466 163.432 278.01 163.432C276.612 163.432 275.438 163.786 274.487 164.495C273.535 165.194 272.817 166.174 272.332 167.436C271.847 168.688 271.604 170.149 271.604 171.818ZM299.806 183.524C298.389 183.524 297.103 183.257 295.948 182.723C294.793 182.18 293.875 181.398 293.196 180.379C292.516 179.35 292.177 178.108 292.177 176.652C292.177 175.371 292.429 174.332 292.934 173.536C293.439 172.731 294.113 172.1 294.958 171.643C295.802 171.187 296.734 170.848 297.753 170.624C298.782 170.391 299.816 170.207 300.854 170.071C302.213 169.896 303.315 169.765 304.159 169.678C305.013 169.581 305.635 169.421 306.023 169.197C306.421 168.974 306.62 168.586 306.62 168.033V167.916C306.62 166.48 306.227 165.363 305.441 164.567C304.664 163.772 303.485 163.374 301.903 163.374C300.262 163.374 298.976 163.733 298.044 164.451C297.112 165.169 296.457 165.936 296.079 166.751L292.817 165.587C293.4 164.228 294.176 163.17 295.147 162.413C296.127 161.646 297.195 161.112 298.35 160.811C299.515 160.5 300.66 160.345 301.786 160.345C302.504 160.345 303.329 160.433 304.261 160.607C305.203 160.772 306.11 161.117 306.984 161.641C307.867 162.165 308.6 162.956 309.182 164.014C309.765 165.072 310.056 166.489 310.056 168.266V183H306.62V179.972H306.445C306.212 180.457 305.824 180.976 305.28 181.529C304.737 182.083 304.014 182.554 303.111 182.942C302.208 183.33 301.107 183.524 299.806 183.524ZM300.33 180.438C301.689 180.438 302.834 180.171 303.766 179.637C304.708 179.103 305.416 178.414 305.892 177.569C306.377 176.725 306.62 175.837 306.62 174.905V171.76C306.474 171.935 306.154 172.095 305.659 172.24C305.174 172.376 304.611 172.498 303.97 172.604C303.339 172.701 302.723 172.789 302.121 172.866C301.529 172.934 301.048 172.993 300.68 173.041C299.787 173.158 298.952 173.347 298.175 173.609C297.408 173.861 296.787 174.245 296.312 174.759C295.846 175.264 295.613 175.953 295.613 176.827C295.613 178.021 296.054 178.923 296.938 179.535C297.831 180.137 298.961 180.438 300.33 180.438ZM319.764 169.547V183H316.328V160.636H319.647V164.131H319.938C320.462 162.995 321.258 162.083 322.326 161.393C323.394 160.695 324.772 160.345 326.461 160.345C327.975 160.345 329.3 160.656 330.436 161.277C331.571 161.888 332.455 162.82 333.086 164.072C333.717 165.315 334.032 166.887 334.032 168.79V183H330.596V169.023C330.596 167.266 330.14 165.897 329.227 164.917C328.315 163.927 327.063 163.432 325.471 163.432C324.374 163.432 323.394 163.67 322.53 164.145C321.676 164.621 321.001 165.315 320.506 166.227C320.011 167.14 319.764 168.246 319.764 169.547ZM346.892 183.524C345.475 183.524 344.189 183.257 343.034 182.723C341.878 182.18 340.961 181.398 340.282 180.379C339.602 179.35 339.263 178.108 339.263 176.652C339.263 175.371 339.515 174.332 340.02 173.536C340.524 172.731 341.199 172.1 342.044 171.643C342.888 171.187 343.82 170.848 344.839 170.624C345.868 170.391 346.902 170.207 347.94 170.071C349.299 169.896 350.401 169.765 351.245 169.678C352.099 169.581 352.721 169.421 353.109 169.197C353.507 168.974 353.706 168.586 353.706 168.033V167.916C353.706 166.48 353.313 165.363 352.526 164.567C351.75 163.772 350.571 163.374 348.988 163.374C347.348 163.374 346.062 163.733 345.13 164.451C344.198 165.169 343.543 165.936 343.165 166.751L339.903 165.587C340.486 164.228 341.262 163.17 342.233 162.413C343.213 161.646 344.281 161.112 345.436 160.811C346.601 160.5 347.746 160.345 348.872 160.345C349.59 160.345 350.415 160.433 351.347 160.607C352.289 160.772 353.196 161.117 354.07 161.641C354.953 162.165 355.686 162.956 356.268 164.014C356.851 165.072 357.142 166.489 357.142 168.266V183H353.706V179.972H353.531C353.298 180.457 352.91 180.976 352.366 181.529C351.823 182.083 351.1 182.554 350.197 182.942C349.294 183.33 348.193 183.524 346.892 183.524ZM347.416 180.438C348.775 180.438 349.92 180.171 350.852 179.637C351.794 179.103 352.502 178.414 352.978 177.569C353.463 176.725 353.706 175.837 353.706 174.905V171.76C353.56 171.935 353.24 172.095 352.745 172.24C352.26 172.376 351.697 172.498 351.056 172.604C350.425 172.701 349.809 172.789 349.207 172.866C348.615 172.934 348.134 172.993 347.765 173.041C346.872 173.158 346.038 173.347 345.261 173.609C344.494 173.861 343.873 174.245 343.398 174.759C342.932 175.264 342.699 175.953 342.699 176.827C342.699 178.021 343.14 178.923 344.024 179.535C344.917 180.137 346.047 180.438 347.416 180.438ZM363.413 183V160.636H366.85V183H363.413ZM365.161 156.909C364.491 156.909 363.913 156.681 363.428 156.225C362.952 155.769 362.715 155.22 362.715 154.58C362.715 153.939 362.952 153.391 363.428 152.934C363.913 152.478 364.491 152.25 365.161 152.25C365.83 152.25 366.403 152.478 366.879 152.934C367.364 153.391 367.607 153.939 367.607 154.58C367.607 155.22 367.364 155.769 366.879 156.225C366.403 156.681 365.83 156.909 365.161 156.909ZM388.984 165.645L385.897 166.518C385.703 166.004 385.417 165.504 385.038 165.019C384.669 164.524 384.165 164.116 383.524 163.796C382.883 163.475 382.063 163.315 381.063 163.315C379.695 163.315 378.554 163.631 377.642 164.262C376.739 164.883 376.288 165.674 376.288 166.635C376.288 167.489 376.598 168.164 377.22 168.659C377.841 169.154 378.811 169.566 380.132 169.896L383.451 170.712C385.451 171.197 386.941 171.94 387.921 172.939C388.901 173.929 389.392 175.206 389.392 176.768C389.392 178.05 389.023 179.195 388.285 180.205C387.557 181.214 386.538 182.01 385.227 182.592C383.917 183.175 382.393 183.466 380.656 183.466C378.375 183.466 376.487 182.971 374.992 181.981C373.497 180.991 372.551 179.545 372.153 177.642L375.414 176.827C375.725 178.03 376.312 178.933 377.176 179.535C378.05 180.137 379.19 180.438 380.597 180.438C382.199 180.438 383.471 180.098 384.412 179.418C385.363 178.729 385.839 177.904 385.839 176.943C385.839 176.167 385.567 175.516 385.024 174.992C384.48 174.458 383.645 174.06 382.519 173.798L378.792 172.925C376.744 172.439 375.24 171.687 374.279 170.668C373.327 169.639 372.852 168.353 372.852 166.81C372.852 165.548 373.206 164.432 373.915 163.461C374.633 162.49 375.608 161.728 376.841 161.175C378.084 160.622 379.491 160.345 381.063 160.345C383.276 160.345 385.014 160.83 386.276 161.801C387.547 162.772 388.45 164.053 388.984 165.645ZM403.94 183.466C401.785 183.466 399.927 182.99 398.364 182.039C396.811 181.078 395.612 179.739 394.768 178.021C393.933 176.293 393.516 174.284 393.516 171.993C393.516 169.702 393.933 167.683 394.768 165.936C395.612 164.179 396.787 162.811 398.291 161.83C399.805 160.84 401.572 160.345 403.591 160.345C404.756 160.345 405.906 160.539 407.041 160.928C408.177 161.316 409.211 161.947 410.143 162.82C411.074 163.684 411.817 164.83 412.37 166.256C412.924 167.683 413.2 169.44 413.2 171.527V172.983H395.962V170.013H409.706C409.706 168.751 409.454 167.625 408.949 166.635C408.454 165.645 407.745 164.864 406.823 164.291C405.911 163.718 404.833 163.432 403.591 163.432C402.222 163.432 401.038 163.772 400.038 164.451C399.048 165.121 398.286 165.994 397.752 167.072C397.219 168.149 396.952 169.304 396.952 170.537V172.517C396.952 174.206 397.243 175.638 397.825 176.812C398.417 177.977 399.237 178.865 400.286 179.477C401.334 180.078 402.552 180.379 403.94 180.379C404.843 180.379 405.658 180.253 406.386 180.001C407.124 179.739 407.76 179.35 408.294 178.836C408.827 178.312 409.24 177.661 409.531 176.885L412.851 177.817C412.501 178.943 411.914 179.933 411.089 180.787C410.264 181.631 409.245 182.291 408.032 182.767C406.818 183.233 405.454 183.466 403.94 183.466ZM434.268 165.645L431.181 166.518C430.987 166.004 430.701 165.504 430.322 165.019C429.954 164.524 429.449 164.116 428.808 163.796C428.168 163.475 427.347 163.315 426.348 163.315C424.979 163.315 423.838 163.631 422.926 164.262C422.023 164.883 421.572 165.674 421.572 166.635C421.572 167.489 421.883 168.164 422.504 168.659C423.125 169.154 424.096 169.566 425.416 169.896L428.735 170.712C430.735 171.197 432.225 171.94 433.205 172.939C434.186 173.929 434.676 175.206 434.676 176.768C434.676 178.05 434.307 179.195 433.569 180.205C432.841 181.214 431.822 182.01 430.512 182.592C429.201 183.175 427.677 183.466 425.94 183.466C423.659 183.466 421.771 182.971 420.276 181.981C418.781 180.991 417.835 179.545 417.437 177.642L420.698 176.827C421.009 178.03 421.596 178.933 422.46 179.535C423.334 180.137 424.474 180.438 425.882 180.438C427.483 180.438 428.755 180.098 429.696 179.418C430.648 178.729 431.123 177.904 431.123 176.943C431.123 176.167 430.851 175.516 430.308 174.992C429.764 174.458 428.929 174.06 427.804 173.798L424.076 172.925C422.028 172.439 420.524 171.687 419.563 170.668C418.612 169.639 418.136 168.353 418.136 166.81C418.136 165.548 418.49 164.432 419.199 163.461C419.917 162.49 420.893 161.728 422.125 161.175C423.368 160.622 424.775 160.345 426.348 160.345C428.561 160.345 430.298 160.83 431.56 161.801C432.831 162.772 433.734 164.053 434.268 165.645Z" fill="#FFF2E6"/>
</svg>
