<svg width="40" height="40" viewBox="0 0 40 40" fill="none" xmlns="http://www.w3.org/2000/svg">
<g clip-path="url(#clip0_28_180)">
<path fill-rule="evenodd" clip-rule="evenodd" d="M0.38092 17.5487C0.38092 17.7684 0.445608 17.9134 0.481858 18.0544C0.718108 18.9709 1.22592 19.7575 1.82842 20.475C2.68655 21.4975 3.73748 22.3206 4.81405 23.0947C5.7478 23.7659 6.70061 24.4222 7.63811 25.0884C7.79905 25.2028 7.95123 25.3344 8.12592 25.4747C7.97561 25.5559 7.85061 25.6275 7.72061 25.6934C6.48342 26.3209 5.29311 27.0244 4.19592 27.8766C3.53467 28.3903 2.8953 28.9362 2.44373 29.6497C1.71717 30.7972 1.45998 32.0197 2.00155 33.325C2.15967 33.7062 2.40092 34.0356 2.74123 34.2791C2.85155 34.3578 2.9753 34.4359 3.10436 34.4666C3.43498 34.5444 3.77186 34.5953 4.10655 34.6569L5.05436 34.6562C6.10248 34.5628 7.05655 34.2037 7.91873 33.6087C9.26623 32.6787 10.174 31.4319 10.5644 29.8316C10.8481 28.6684 10.8597 27.5041 10.5253 26.3462C10.4932 26.239 10.4563 26.1333 10.4147 26.0294C10.374 25.9253 10.3262 25.8241 10.27 25.6944L12.4187 24.4587L12.4509 24.4863C12.4119 24.6141 12.3703 24.7416 12.335 24.8706C12.0797 25.8031 11.91 26.7519 11.9709 27.7197C12.0359 28.7509 12.3237 29.7162 12.9275 30.5778C13.4156 31.2747 14.5787 31.3006 15.0975 30.6013C15.2815 30.3528 15.46 30.0931 15.594 29.8159C15.9444 29.0925 16.2687 28.3563 16.6034 27.625L16.6619 27.4912C16.6378 27.8375 16.6097 28.1416 16.5969 28.4459C16.5769 28.9212 16.6047 29.3938 16.7672 29.8459C16.9062 30.2328 17.1428 30.5219 17.5859 30.5728C17.889 30.6075 18.1306 30.4687 18.3534 30.2928C18.6985 30.0199 18.9846 29.6798 19.1944 29.2931C19.7884 28.2022 20.3984 27.1178 20.9369 25.9994C21.5194 24.7897 22.0287 23.5447 22.5697 22.3144L22.659 22.0963C22.7869 22.5984 22.8759 23.0903 23.04 23.5559C23.2306 24.0962 23.4665 24.6237 23.7234 25.1366C23.845 25.3787 23.8309 25.5359 23.6625 25.7391C22.9575 26.5891 22.2647 27.4494 21.5712 28.3088C21.4178 28.4984 21.265 28.6916 21.1372 28.8988C21.0596 29.0296 21.0086 29.1744 20.9872 29.325C20.9657 29.4636 20.9987 29.6052 21.0792 29.72C21.1598 29.8348 21.2817 29.914 21.4194 29.9409C21.6972 30.0006 21.9821 30.0209 22.2656 30.0012C23.2334 29.93 24.1122 29.5903 24.889 29.0147C25.8956 28.2691 26.2187 27.2516 25.975 26.0456C25.909 25.7184 25.7925 25.4003 25.679 25.085C25.6281 24.9428 25.6247 24.8431 25.7175 24.7106C26.5222 23.5616 27.2097 22.3425 27.849 21.0953C27.8744 21.0462 27.9003 20.9972 27.9447 20.9447C28.1519 22.0228 28.4637 23.0619 29.0225 24.0047C28.7375 24.2794 28.4553 24.5284 28.2 24.8028C27.6378 25.4072 27.1503 26.0634 26.8959 26.8637C26.7865 27.2087 26.7025 27.5594 26.7512 27.9278C26.8269 28.5 27.2956 28.8719 27.8584 28.7416C29.0628 28.4628 30.1025 27.8953 30.8622 26.89C31.3734 26.2131 31.42 25.4581 31.2059 24.6672C31.1472 24.4522 31.0775 24.2406 31.0025 23.9941C31.2997 23.9019 31.5894 23.7913 31.889 23.7228C33.445 23.3678 34.984 23.4297 36.4834 23.9916C37.3587 24.3197 38.0659 24.8688 38.4853 25.7325C38.9975 26.7884 38.7144 27.7903 37.719 28.4578C37.6262 28.52 37.52 28.5691 37.4431 28.6469C37.4185 28.6754 37.4001 28.7088 37.3891 28.7448C37.378 28.7809 37.3746 28.8188 37.379 28.8562C37.3856 28.8947 37.4872 28.9428 37.5456 28.9422C37.8728 28.9397 38.1381 28.7681 38.3928 28.5919C39.0309 28.1503 39.4965 27.5563 39.5969 26.7741L39.6165 26.7153L39.5925 26.2059C39.5828 26.1766 39.5997 26.1475 39.5975 26.1253C39.4619 24.9862 38.8534 24.1028 37.9684 23.4103C36.9434 22.6088 35.7331 22.2787 34.4531 22.2266C33.415 22.1819 32.3782 22.3415 31.4015 22.6962C31.1212 22.7978 30.8434 22.9181 30.5615 23.0316C30.5237 22.9631 30.4831 22.8975 30.4497 22.8297C30.1603 22.2372 29.8097 21.6709 29.7322 20.9916C29.6772 20.5091 29.6097 20.0272 29.7244 19.55C29.8347 19.0909 29.9784 18.6397 30.1137 18.1869C30.1834 17.9538 30.1344 17.8231 29.9119 17.7181C29.8341 17.68 29.7514 17.6529 29.6662 17.6375C29.1194 17.5581 28.58 17.6034 28.0503 17.7575C27.8628 17.8122 27.7265 17.9172 27.685 18.1247C27.6612 18.2438 27.6128 18.3578 27.579 18.4753C27.4406 18.9637 27.3425 19.4616 27.1187 19.9269C26.5581 21.0941 25.9181 22.2172 25.2631 23.3322C25.1922 23.4525 25.1175 23.5706 25.0281 23.7166C24.7981 23.2353 24.5528 22.8034 24.4784 22.2972C24.3944 21.7247 24.3281 21.1531 24.4706 20.585C24.5765 20.1613 24.715 19.7453 24.8425 19.3272C24.9028 19.1284 24.875 19.0241 24.695 18.9194C24.604 18.8666 24.5012 18.8197 24.3987 18.8044C23.838 18.7189 23.265 18.7658 22.7256 18.9412C22.5559 18.9963 22.4669 19.1059 22.415 19.2809C22.2625 19.7972 22.1325 20.3259 21.9184 20.8169C21.0515 22.8044 20.1597 24.7816 19.2687 26.7584C19.0828 27.1712 18.865 27.5697 18.6553 27.9716C18.6022 28.0734 18.5247 28.1631 18.4584 28.2588C18.4053 28.1959 18.3847 28.1528 18.385 28.1097C18.3865 27.8556 18.3562 27.5941 18.4047 27.3484C18.5534 26.6056 18.7178 25.8659 18.8978 25.13C19.0447 24.5219 19.2156 23.9194 19.3784 23.3153C19.4331 23.1131 19.434 22.9241 19.2887 22.7541C19.0447 22.4694 18.5347 22.4069 18.2322 22.6262L18.0984 22.7019L18.1244 22.4862C18.1881 22.0241 18.2009 21.5634 18.074 21.1081C17.9159 20.5406 17.5109 20.2141 16.9222 20.2322C16.6478 20.2406 16.3597 20.2875 16.1056 20.3875C15.0372 20.8062 14.2156 21.5478 13.5162 22.44C13.4514 22.5228 13.371 22.5922 13.2797 22.6444C12.3756 23.1456 11.4687 23.6406 10.5622 24.1375L9.55311 24.6903C9.28248 24.4322 9.03655 24.1644 8.75748 23.9372C7.9053 23.2422 7.03936 22.5644 6.18123 21.8772C5.42061 21.2681 4.68373 20.6337 4.11998 19.8272C3.70061 19.2272 3.4303 18.5706 3.40436 17.8287C3.37155 16.8834 3.63967 16.0197 4.12092 15.2156C4.73655 14.1869 5.57623 13.3612 6.49936 12.6134C7.47592 11.8228 8.53217 11.1516 9.62686 10.5387C11.1584 9.68156 12.7337 8.92281 14.4228 8.42188C16.1547 7.90813 17.9119 7.61406 19.7244 7.81906C20.4369 7.89969 21.1287 8.06281 21.764 8.41125C22.2506 8.67781 22.6497 9.02688 22.8353 9.5725C23.0184 10.1094 23.0128 10.6534 22.8859 11.1987C22.6281 12.3031 22.0234 13.2134 21.2625 14.0269C20.0144 15.3603 18.4919 16.2681 16.7778 16.8678C15.7922 17.213 14.7669 17.4317 13.7262 17.5188C12.8734 17.5903 12.0384 17.5147 11.2309 17.2181C10.6962 17.0216 10.2306 16.7209 9.85623 16.2847C9.78936 16.2066 9.70373 16.1219 9.57905 16.195C9.45686 16.2669 9.4353 16.3831 9.47623 16.5009C9.54467 16.6966 9.6078 16.9003 9.71436 17.0753C9.98217 17.5144 10.3728 17.8328 10.8028 18.1059C11.6287 18.6312 12.5519 18.8078 13.509 18.8488C14.9615 18.9116 16.3787 18.6947 17.7759 18.305C19.7706 17.7487 21.505 16.7663 22.8959 15.2163C24.054 13.9256 24.8812 12.4691 25.0584 10.7103C25.145 9.85187 25.0528 9.01094 24.6509 8.22781C24.215 7.37938 23.5219 6.74844 22.6931 6.31375C21.4862 5.68094 20.1837 5.3125 18.8394 5.3125H17.4925C15.8644 5.3125 14.2903 5.77906 12.7603 6.33563C11.6022 6.75719 10.4665 7.25469 9.36405 7.80531C6.96311 9.005 4.72717 10.4516 2.89061 12.4406C1.97561 13.4316 1.20092 14.525 0.755295 15.8125C0.621028 16.197 0.505167 16.5876 0.408108 16.9831M9.1078 28.2372C9.00373 29.6306 8.37217 30.7603 7.33998 31.6753C6.75936 32.1897 6.09342 32.5559 5.3178 32.6847C5.03655 32.7313 4.74873 32.7425 4.47592 32.6259C4.08686 32.4597 3.99967 32.1144 3.99217 31.7466C3.98061 31.1603 4.18592 30.6303 4.46748 30.1259C4.83498 29.4684 5.37373 28.9672 5.94905 28.4991C6.8553 27.7612 7.83842 27.1369 8.8453 26.5475L8.92123 26.5162C9.07686 27.0912 9.15092 27.6591 9.1078 28.2372ZM16.9697 22.1813C16.8962 22.6263 16.8044 23.0716 16.6744 23.5028C16.225 24.9956 15.6478 26.4422 15.0237 27.8694C14.9084 28.1334 14.7406 28.3744 14.5947 28.6247C14.5698 28.6631 14.5401 28.6982 14.5062 28.7291C14.3256 28.9075 14.1544 28.8981 14.0631 28.6647C13.9569 28.3934 13.8915 28.1031 13.8353 27.8159C13.7975 27.6231 13.8065 27.4206 13.7947 27.2231C13.8069 25.8188 14.2353 24.5425 14.9622 23.3544C15.2619 22.8644 15.5881 22.3975 16.0865 22.0875C16.2417 21.9912 16.4094 21.9169 16.585 21.8669C16.8506 21.7922 17.0137 21.915 16.9697 22.1813ZM22.3334 29.015L24.2612 26.7641C24.3415 27.6 22.9206 29.2687 22.3334 29.015ZM28.4906 27.5003C28.3544 27.5784 28.2059 27.6347 28.0662 27.7069C27.9384 27.7731 27.8962 27.7062 27.8925 27.5962C27.8907 27.5201 27.9005 27.4441 27.9215 27.3709C28.1819 26.4528 28.6609 25.6691 29.3737 25.0316L29.4237 25.0059C29.7628 25.9544 29.3709 26.9959 28.4906 27.5003Z" fill="#CB6699"/>
</g>
<defs>
<clipPath id="clip0_28_180">
<rect width="40" height="40" fill="white"/>
</clipPath>
</defs>
</svg>
