<svg width="45" height="40" viewBox="0 0 45 40" fill="none" xmlns="http://www.w3.org/2000/svg">
<g clip-path="url(#clip0_28_170)">
<path d="M36.999 12.9515C36.5201 12.7876 36.0371 12.6357 35.5505 12.4959C35.6323 12.1626 35.7075 11.8333 35.7743 11.5098C36.8708 6.19734 36.154 1.91751 33.7055 0.50839C31.358 -0.842487 27.5187 0.56611 23.6413 3.934C23.2592 4.26651 22.8855 4.6086 22.5207 4.95997C22.2765 4.72633 22.028 4.49723 21.7753 4.27278C17.7115 0.671724 13.6383 -0.845995 11.1925 0.567162C8.84707 1.92225 8.15256 5.94558 9.13975 10.9803C9.23796 11.479 9.34886 11.975 9.47232 12.468C8.89576 12.6315 8.33941 12.8056 7.80697 12.9908C3.0426 14.6487 0 17.2468 0 19.9417C0 22.7251 3.26637 25.5168 8.22867 27.2096C8.63099 27.3463 9.03664 27.4729 9.44525 27.5894C9.31259 28.1204 9.19477 28.655 9.09193 29.1926C8.1508 34.14 8.88574 38.0682 11.2249 39.4147C13.6408 40.8052 17.6957 39.3761 21.6439 35.9314C21.9641 35.6513 22.2772 35.3633 22.583 35.0677C22.978 35.4481 23.3837 35.8175 23.7994 36.1754C27.624 39.46 31.4012 40.7863 33.738 39.4361C36.1517 38.0415 36.9362 33.8215 35.9177 28.6873C35.8375 28.2851 35.7475 27.8849 35.6479 27.487C35.9327 27.4028 36.2122 27.3161 36.4846 27.2259C41.6435 25.5201 45 22.7622 45 19.9417C45 17.237 41.8591 14.6214 36.999 12.9515ZM35.8801 25.4049C35.6338 25.486 35.3818 25.5647 35.1243 25.6408C34.5547 23.8414 33.7862 21.928 32.8456 19.951C33.7431 18.0212 34.4821 16.1322 35.0357 14.3445C35.496 14.4775 35.9427 14.6177 36.3734 14.7656C40.5376 16.1965 43.0777 18.3117 43.0777 19.9417C43.0777 21.6779 40.3344 23.9317 35.8801 25.4049ZM34.032 29.06C34.4823 31.3301 34.5465 33.3828 34.2482 34.9875C33.9803 36.4294 33.4413 37.3907 32.7748 37.7758C31.3567 38.5951 28.324 37.5301 25.0532 34.721C24.6666 34.3883 24.2893 34.0448 23.9217 33.6912C25.1898 32.3072 26.457 30.6982 27.6938 28.9112C29.8693 28.7186 31.9245 28.4035 33.7883 27.9735C33.8803 28.3433 33.9615 28.7055 34.032 29.06ZM15.3415 37.6342C13.956 38.1224 12.8524 38.1365 12.1853 37.7526C10.7659 36.9356 10.1758 33.7814 10.9807 29.5505C11.0764 29.0505 11.1859 28.5533 11.3092 28.0594C13.1525 28.4665 15.1928 28.7591 17.3733 28.9356C18.6186 30.6842 19.9223 32.2914 21.2363 33.6987C20.9571 33.9684 20.6712 34.2312 20.379 34.4868C18.633 36.01 16.8834 37.0907 15.3415 37.6342ZM8.85059 25.3942C6.65631 24.6456 4.84418 23.6728 3.60211 22.6112C2.4859 21.6573 1.92252 20.7101 1.92252 19.9417C1.92252 18.3063 4.36535 16.2203 8.43979 14.8026C8.93426 14.6307 9.45176 14.4684 9.98877 14.3161C10.552 16.1442 11.2906 18.0556 12.182 19.9884C11.279 21.9498 10.5298 23.8917 9.96117 25.7414C9.58819 25.6347 9.21788 25.519 8.85059 25.3942ZM11.0264 10.6117C10.1807 6.29821 10.7423 3.04435 12.1558 2.22769C13.6612 1.35786 16.9901 2.59804 20.4989 5.70751C20.7277 5.91073 20.9528 6.11807 21.1741 6.32944C19.8666 7.73067 18.5748 9.32593 17.3406 11.0642C15.2242 11.26 13.1984 11.5744 11.3358 11.9956C11.221 11.537 11.1178 11.0755 11.0264 10.6117ZM30.4374 15.3958C29.9975 14.6373 29.5412 13.8884 29.0689 13.1496C30.5047 13.3308 31.8804 13.5714 33.1722 13.8654C32.7844 15.1061 32.301 16.4031 31.732 17.733C31.3161 16.9454 30.8845 16.1661 30.4374 15.3958ZM22.5216 7.70085C23.4083 8.65962 24.2963 9.72997 25.1698 10.8914C23.3979 10.8078 21.6231 10.8075 19.8512 10.8903C20.7255 9.73962 21.6211 8.67067 22.5216 7.70085ZM14.555 15.4087C14.1135 16.1729 13.69 16.9473 13.2847 17.7312C12.725 16.4061 12.246 15.1031 11.8549 13.8449C13.1388 13.5582 14.5079 13.3238 15.9346 13.1459C15.4571 13.8893 14.9971 14.6439 14.555 15.4087ZM15.9755 26.8738C14.5016 26.7096 13.1119 26.4873 11.8283 26.2084C12.2256 24.9277 12.7151 23.597 13.287 22.2435C13.6938 23.028 14.1192 23.8028 14.5626 24.5673C15.0186 25.3533 15.4907 26.1231 15.9755 26.8738ZM22.5747 32.3177C21.6635 31.3366 20.7547 30.2512 19.8671 29.0838C20.7288 29.1175 21.6072 29.1347 22.5 29.1347C23.4172 29.1347 24.3239 29.1142 25.2163 29.0745C24.3401 30.2629 23.4554 31.35 22.5747 32.3177ZM31.7501 22.1744C32.3517 23.5428 32.8586 24.8665 33.2612 26.1252C31.9565 26.4224 30.5478 26.6617 29.0635 26.8394C29.5391 26.0869 29.9997 25.325 30.445 24.5542C30.8977 23.7707 31.3328 22.9772 31.7501 22.1744ZM28.7798 23.5956C28.0981 24.7774 27.3781 25.9368 26.621 27.0719C25.2495 27.1689 23.875 27.2171 22.5 27.2163C21.0996 27.2163 19.7374 27.1728 18.4257 27.0879C17.6488 25.9554 16.9151 24.794 16.2262 23.6061C15.5404 22.4246 14.9001 21.2174 14.3063 19.9873C14.8986 18.7569 15.5372 17.5492 16.2206 16.3668L16.2204 16.367C16.9034 15.1842 17.6313 14.0277 18.4024 12.9001C19.7406 12.7991 21.1129 12.7465 22.4998 12.7465C23.8931 12.7465 25.2673 12.7996 26.6052 12.9014C27.3685 14.0273 28.0917 15.1798 28.7735 16.3566C29.459 17.5365 30.106 18.7383 30.7134 19.9601C30.1122 21.1944 29.4673 22.407 28.7798 23.5956ZM32.7454 2.17032C34.2522 3.03769 34.8383 6.53541 33.8915 11.1222C33.8308 11.4151 33.7634 11.7128 33.6894 12.0152C31.8222 11.5851 29.7949 11.2652 27.6724 11.0665C26.4359 9.30909 25.1546 7.71137 23.8685 6.32821C24.2056 6.00393 24.5507 5.68804 24.9035 5.38085C28.2257 2.49541 31.3307 1.35611 32.7454 2.17032ZM22.5 15.9312C24.7192 15.9312 26.5184 17.7268 26.5184 19.9417C26.5184 22.1566 24.7192 23.9522 22.5 23.9522C20.2808 23.9522 18.4816 22.1566 18.4816 19.9417C18.4816 17.7268 20.2808 15.9312 22.5 15.9312Z" fill="#00D8FF"/>
</g>
<defs>
<clipPath id="clip0_28_170">
<rect width="45" height="40" fill="white"/>
</clipPath>
</defs>
</svg>
