<svg xmlns="http://www.w3.org/2000/svg" width="236" height="41" fill="none"><g fill="#E8E8E8" clip-path="url(#a)"><path d="M16.378 9.057q5.908 0 8.689 2.372 2.823 2.371 2.823 6.21 0 1.294-.347 2.89-.825 3.535-3.084 6.21-2.26 2.631-5.561 4.097-3.259 1.423-7.081 1.423-6.04 0-8.95-2.372Q0 27.472 0 23.505q0-1.338.348-2.976a13.75 13.75 0 0 1 3.127-5.952q2.346-2.63 5.691-4.054 3.39-1.466 7.212-1.466m-.13 3.838q-.913 0-1.955 1.639-1 1.595-2.39 6.08t-1.39 6.298q0 .948.304 1.293.304.303.826.302.912.086 1.868-1.552.999-1.639 2.476-6.383 1.347-4.184 1.347-6.081 0-.905-.304-1.25-.261-.345-.782-.346M53.857 25.92q-.087.172-.087.517 0 .302.13.475.175.172.435.172.521 0 .869-.431.39-.474.521-.475.217 0 .348.302.13.26.13.647.044 1.25-.825 2.459-.87 1.164-2.563 1.94-1.651.733-3.997.733-2.867.001-4.562-1.294-1.695-1.336-1.737-3.536 0-1.596.781-3.58l2.39-6.21q.217-.56.217-.905 0-.561-.39-.863a1.18 1.18 0 0 0-.87-.345q-.825 0-1.694.776-.826.733-1.347 2.415v-.086l-2.737 8.755q-.13.517-.13.906 0 .56.217.905.218.302.608.604.304.302.435.518.13.172.043.474-.217.56-.869.82-.651.258-1.998.258H27.27q-1.13 0-1.65-.345-.522-.389-.348-.992.173-.518.912-.905a4 4 0 0 0 1.086-.82q.435-.474.739-1.51l6.603-21.52q.13-.388.13-.647 0-.474-.26-.776a3 3 0 0 0-.609-.604 4.6 4.6 0 0 1-.651-.604q-.174-.258-.044-.69.26-.991 2.737-1.725A18.1 18.1 0 0 1 41.085 0q2.52 0 3.693.949 1.215.949 1.216 2.587a5.8 5.8 0 0 1-.304 1.855l-2.346 7.59q1.695-2.2 3.562-3.062 1.912-.862 4.127-.862 2.65 0 4.258 1.595 1.65 1.596 1.65 4.14 0 1.338-.434 2.632zM99.384 25.92q-.087.172-.087.517 0 .302.13.475.173.172.435.172.52 0 .869-.431.39-.474.521-.475.218 0 .347.302.13.26.131.647.044 1.25-.826 2.459-.868 1.164-2.563 1.94-1.65.733-3.997.733-2.867.001-4.561-1.294-1.695-1.336-1.738-3.536 0-1.596.782-3.58l2.39-6.21q.217-.561.217-.905 0-.561-.391-.863a1.18 1.18 0 0 0-.87-.345q-.738 0-1.52.647-.78.647-1.39 2.027l-2.39 7.72q-.086.172-.086.517 0 .302.13.475.173.172.435.172.52 0 .869-.431.39-.474.52-.475.219 0 .348.302.13.26.13.647.045 1.25-.825 2.459-.868 1.164-2.563 1.94-1.65.733-3.997.733-2.867.001-4.561-1.294-1.695-1.336-1.738-3.536 0-1.596.782-3.58l2.39-6.21q.217-.561.217-.905 0-.561-.391-.863a1.18 1.18 0 0 0-.87-.345q-.738 0-1.52.647-.78.604-1.303 1.984l-2.867 9.229a2.6 2.6 0 0 0-.174.906q0 .517.217.862.218.302.608.647.305.259.435.474.13.216.043.518-.172.56-.825.82-.651.258-2.042.258H58.33q-1.13 0-1.607-.345-.522-.389-.391-.992.173-.518.912-.905.652-.346 1.086-.82t.739-1.51l3.866-12.463q.087-.216.087-.604 0-.474-.217-.733-.174-.259-.608-.647-.435-.345-.609-.604-.174-.258-.043-.69.26-.992 2.737-1.725a17.2 17.2 0 0 1 5.17-.776q2.129 0 3.345 1.164 1.26 1.165 1.216 3.192 1.781-2.46 3.736-3.407 1.998-.95 4.301-.95 2.52 0 4.084 1.467 1.607 1.424 1.78 3.752 1.868-2.932 3.998-4.054 2.128-1.164 4.648-1.164 2.65 0 4.257 1.595 1.651 1.596 1.651 4.14 0 1.338-.434 2.632z"/><path d="M126.192 9.057q1.912 0 3.04 1.552 1.174 1.51 1.173 4.14 0 2.286-.824 4.917-1.609 5.305-5.17 10.006-3.519 4.701-8.124 7.547-4.561 2.846-9.123 2.846-2.259 0-3.91-.776-1.608-.776-2.433-2.07-.869-1.294-.869-2.76 0-.647.218-1.423.39-1.208 1.303-1.855t2.172-.647q1.998 0 3.258 1.337 1.303 1.38 1.651 3.752 2.78-.13 5.126-2.372-2.215-.387-3.301-1.466-1.043-1.121-1.434-3.45l-1.738-10.566q-.13-.82-.391-1.122a.68.68 0 0 0-.608-.345q-.305 0-.738.302-.391.302-.565.302-.348 0-.348-.733 0-.604.217-1.294.783-2.458 2.911-4.14 2.129-1.725 4.953-1.725 2.78 0 4.083 1.639 1.347 1.638 1.738 5.045l1.303 9.488q.13 1.08.782 1.079.782 0 1.824-1.38 1.044-1.424 2.043-4.011a8.1 8.1 0 0 1-1.999-2.674 7.65 7.65 0 0 1-.695-3.235q0-1.337.348-2.415.52-1.725 1.607-2.588 1.13-.905 2.52-.905M147.832 0q4.648 0 6.951 1.423 2.345 1.38 2.346 3.407 0 1.64-1.39 2.545-1.348.862-3.563.862-2.042 0-3.172-.992-1.129-.99-1.129-2.458 0-.906.564-1.897-1.302 0-2.171.646-.869.604-1.348 2.114a6.7 6.7 0 0 0-.26 1.768q0 1.035.348 1.639.392.56 1.085.56h2.565q2.258 0 2.258 1.38 0 .173-.087.518-.261.95-1.086 1.423-.782.475-2.389.475h-1.303l-4.301 13.973a3.8 3.8 0 0 0-.131.906q0 .56.217.905.218.302.609.604.304.302.434.518.13.172.044.474-.217.56-.869.82-.652.258-1.999.258h-9.905q-1.129 0-1.65-.345-.522-.389-.349-.992.175-.518.913-.905.652-.346 1.086-.82t.739-1.51l3.388-11.04q.217-.647.217-1.337 0-.862-.391-1.337-.347-.518-1.085-1.121a10 10 0 0 1-.739-.647 1.15 1.15 0 0 1-.217-.69q-.043-.819.564-1.165.653-.345 2.433-.345h1.087a8 8 0 0 1-.304-2.156q0-1.078.39-2.243.826-2.199 3.519-3.709Q142.488 0 147.832 0"/><path d="M164.992 9.057q5.908 0 8.689 2.372 2.824 2.371 2.823 6.21 0 1.294-.347 2.89-.826 3.535-3.084 6.21-2.26 2.631-5.561 4.097-3.258 1.423-7.082 1.423-6.038 0-8.949-2.372-2.867-2.415-2.867-6.382 0-1.338.348-2.976a13.75 13.75 0 0 1 3.128-5.952q2.346-2.63 5.691-4.054 3.388-1.466 7.211-1.466m-.13 3.838q-.912 0-1.955 1.639-1 1.595-2.389 6.08-1.39 4.486-1.39 6.298 0 .948.304 1.293.304.303.825.302.912.086 1.868-1.552 1-1.639 2.477-6.383 1.347-4.184 1.346-6.081 0-.905-.304-1.25-.261-.345-.782-.346M193.502 9.057q5.908 0 8.689 2.372 2.823 2.371 2.823 6.21 0 1.294-.348 2.89-.824 3.535-3.084 6.21-2.26 2.631-5.56 4.097-3.259 1.423-7.082 1.423-6.039 0-8.949-2.372-2.867-2.415-2.867-6.382 0-1.338.347-2.976a13.76 13.76 0 0 1 3.128-5.952q2.347-2.63 5.691-4.054 3.39-1.466 7.212-1.466m-.131 3.838q-.911 0-1.955 1.639-.998 1.595-2.388 6.08-1.391 4.486-1.391 6.298 0 .948.304 1.293.304.303.826.302.912.086 1.868-1.552.998-1.639 2.476-6.383 1.347-4.184 1.347-6.081 0-.905-.304-1.25-.261-.345-.783-.346M229.484 25.66a2.3 2.3 0 0 0-.087.475q0 .302.173.475a.6.6 0 0 0 .434.172q.522 0 .87-.431.391-.474.52-.474.218 0 .349.301.13.303.129.69.044 1.165-.912 2.373-.913 1.207-2.475 1.983a7.5 7.5 0 0 1-3.389.777q-2.173 0-3.78-.82t-2.215-2.156q-1.173 1.51-2.694 2.242a7.3 7.3 0 0 1-3.214.734 7.4 7.4 0 0 1-3.737-.992q-1.694-.992-2.737-2.804-.999-1.854-.999-4.183 0-3.925 1.477-7.375 1.52-3.493 4.214-5.606 2.693-2.157 6.125-2.157 1.87 0 3.172.432a7.6 7.6 0 0 1 2.432 1.293l1.478-4.83q.13-.388.131-.647 0-.474-.261-.776a3 3 0 0 0-.609-.604 4.7 4.7 0 0 1-.651-.604q-.173-.258-.044-.69.262-.991 2.738-1.725A18.1 18.1 0 0 1 231.091 0q2.519 0 3.692.949Q236 1.898 236 3.536q0 .95-.304 1.855zm-7.256-12.118q-.694-.603-1.52-.604-1.26 0-2.476 1.855-1.217 1.854-1.956 4.485-.738 2.63-.695 4.744 0 2.372 1.565 2.372.564 0 .956-.431.39-.475.738-1.51z"/></g><defs><clipPath id="a"><path fill="#fff" d="M0 0h236v41H0z"/></clipPath></defs></svg>