<svg width="85" height="85" viewBox="0 0 85 85" fill="none" xmlns="http://www.w3.org/2000/svg">
<path d="M85 37.7778V28.3333H75.5556V18.8889C75.5481 16.3864 74.5506 13.9885 72.7811 12.2189C71.0115 10.4494 68.6136 9.45192 66.1111 9.44444H56.6667V0H47.2222V9.44444H37.7778V0H28.3333V9.44444H18.8889C16.3864 9.45192 13.9885 10.4494 12.2189 12.2189C10.4494 13.9885 9.45192 16.3864 9.44444 18.8889V28.3333H0V37.7778H9.44444V47.2222H0V56.6667H9.44444V66.1111C9.45192 68.6136 10.4494 71.0115 12.2189 72.7811C13.9885 74.5506 16.3864 75.5481 18.8889 75.5556H28.3333V85H37.7778V75.5556H47.2222V85H56.6667V75.5556H66.1111C68.6136 75.5481 71.0115 74.5506 72.7811 72.7811C74.5506 71.0115 75.5481 68.6136 75.5556 66.1111V56.6667H85V47.2222H75.5556V37.7778H85ZM66.1111 66.1111H18.8889V18.8889H66.1111V66.1111Z" fill="url(#paint0_linear_232_566)"/>
<path d="M40.3375 25.8333H34.7333L26.3583 59.1667H30.6375L32.5708 51.3542H42.2208L44.1042 59.1667H48.5292L40.3375 25.8333ZM33.1333 48.0167L37.375 29.7917H37.5667L41.6625 48.0167H33.1333ZM52.35 25.8333H56.5167V59.1667H52.35V25.8333Z" fill="url(#paint1_linear_232_566)"/>
<defs>
<linearGradient id="paint0_linear_232_566" x1="41.4376" y1="25.8333" x2="41.4376" y2="59.1666" gradientUnits="userSpaceOnUse">
<stop stop-color="#FFC2A1"/>
<stop offset="1" stop-color="#CBECFE"/>
</linearGradient>
<linearGradient id="paint1_linear_232_566" x1="41.4376" y1="25.8333" x2="41.4376" y2="59.1666" gradientUnits="userSpaceOnUse">
<stop stop-color="#FFC2A1"/>
<stop offset="1" stop-color="#CBECFE"/>
</linearGradient>
</defs>
</svg>
