<svg width="173" height="29" viewBox="0 0 173 29" fill="none" xmlns="http://www.w3.org/2000/svg">
<rect width="173" height="29" fill="white"/>
<path d="M7.94283 23H5.72692L12.136 5.54545H14.3178L20.7269 23H18.511L13.2951 8.30682H13.1587L7.94283 23ZM8.76101 16.1818H17.6928V18.0568H8.76101V16.1818ZM23.4457 23V5.54545H29.3434C30.707 5.54545 31.8263 5.77841 32.7013 6.24432C33.5763 6.70454 34.2241 7.33807 34.6445 8.14489C35.065 8.9517 35.2752 9.86932 35.2752 10.8977C35.2752 11.9261 35.065 12.8381 34.6445 13.6335C34.2241 14.429 33.5792 15.054 32.7099 15.5085C31.8406 15.9574 30.7298 16.1818 29.3775 16.1818H24.6048V14.2727H29.3093C30.2411 14.2727 30.9911 14.1364 31.5593 13.8636C32.1332 13.5909 32.5479 13.2045 32.8036 12.7045C33.065 12.1989 33.1957 11.5966 33.1957 10.8977C33.1957 10.1989 33.065 9.58807 32.8036 9.06534C32.5423 8.54261 32.1246 8.1392 31.5508 7.85511C30.9769 7.56534 30.2184 7.42045 29.2752 7.42045H25.5593V23H23.4457ZM31.6616 15.1591L35.957 23H33.5025L29.2752 15.1591H31.6616ZM50.729 11C50.5415 10.4261 50.2944 9.91193 49.9876 9.45739C49.6864 8.99716 49.3256 8.60511 48.9052 8.28125C48.4904 7.95739 48.0188 7.71023 47.4904 7.53977C46.962 7.36932 46.3825 7.28409 45.7518 7.28409C44.7177 7.28409 43.7773 7.55114 42.9308 8.08523C42.0842 8.61932 41.4109 9.40625 40.9109 10.446C40.4109 11.4858 40.1609 12.7614 40.1609 14.2727C40.1609 15.7841 40.4137 17.0597 40.9194 18.0994C41.4251 19.1392 42.1097 19.9261 42.9734 20.4602C43.837 20.9943 44.8086 21.2614 45.8881 21.2614C46.8881 21.2614 47.7688 21.0483 48.5302 20.6222C49.2972 20.1903 49.8938 19.5824 50.32 18.7983C50.7518 18.0085 50.9677 17.0795 50.9677 16.0114L51.6154 16.1477H46.3654V14.2727H53.0131V16.1477C53.0131 17.5852 52.7063 18.8352 52.0927 19.8977C51.4847 20.9602 50.6438 21.7841 49.57 22.3693C48.5018 22.9489 47.2745 23.2386 45.8881 23.2386C44.3427 23.2386 42.9847 22.875 41.8143 22.1477C40.6495 21.4205 39.7404 20.3864 39.087 19.0455C38.4393 17.7045 38.1154 16.1136 38.1154 14.2727C38.1154 12.892 38.3001 11.6506 38.6694 10.5483C39.0444 9.44034 39.5728 8.49716 40.2546 7.71875C40.9364 6.94034 41.7433 6.34375 42.6751 5.92898C43.6069 5.5142 44.6325 5.30682 45.7518 5.30682C46.6722 5.30682 47.5302 5.44602 48.3256 5.72443C49.1268 5.99716 49.8398 6.38636 50.4648 6.89204C51.0955 7.39204 51.6211 7.99148 52.0415 8.69034C52.462 9.38352 52.7518 10.1534 52.9109 11H50.729ZM56.6332 23V5.54545H67.1673V7.42045H58.7468V13.3182H66.6218V15.1932H58.7468V21.125H67.3036V23H56.6332ZM84.8178 5.54545V23H82.7724L73.261 9.29545H73.0906V23H70.9769V5.54545H73.0224L82.5678 19.2841H82.7383V5.54545H84.8178Z" fill="#7FAD81"/>
<path d="M88.0927 7.42045V5.54545H101.184V7.42045H95.695V23H93.5813V7.42045H88.0927Z" fill="#7FAD81"/>
<path d="M104.446 23V5.54545H110.548C111.764 5.54545 112.767 5.75568 113.556 6.17614C114.346 6.59091 114.934 7.15057 115.321 7.85511C115.707 8.55398 115.9 9.32954 115.9 10.1818C115.9 10.9318 115.767 11.5511 115.5 12.0398C115.238 12.5284 114.892 12.9148 114.46 13.1989C114.034 13.483 113.571 13.6932 113.071 13.8295V14C113.605 14.0341 114.142 14.2216 114.681 14.5625C115.221 14.9034 115.673 15.392 116.037 16.0284C116.4 16.6648 116.582 17.4432 116.582 18.3636C116.582 19.2386 116.383 20.0256 115.985 20.7244C115.588 21.4233 114.96 21.9773 114.102 22.3864C113.244 22.7955 112.127 23 110.752 23H104.446ZM106.559 21.125H110.752C112.133 21.125 113.113 20.858 113.693 20.3239C114.278 19.7841 114.571 19.1307 114.571 18.3636C114.571 17.7727 114.42 17.2273 114.119 16.7273C113.818 16.2216 113.389 15.8182 112.832 15.517C112.275 15.2102 111.616 15.0568 110.855 15.0568H106.559V21.125ZM106.559 13.2159H110.48C111.116 13.2159 111.69 13.0909 112.201 12.8409C112.718 12.5909 113.127 12.2386 113.429 11.7841C113.735 11.3295 113.889 10.7955 113.889 10.1818C113.889 9.41477 113.622 8.7642 113.088 8.23011C112.554 7.69034 111.707 7.42045 110.548 7.42045H106.559V13.2159ZM120.771 23H118.555L124.964 5.54545H127.146L133.555 23H131.339L126.123 8.30682H125.987L120.771 23ZM121.589 16.1818H130.521V18.0568H121.589V16.1818ZM150.115 5.54545V23H148.069L138.558 9.29545H138.387V23H136.274V5.54545H138.319L147.865 19.2841H148.035V5.54545H150.115ZM154.344 23V5.54545H156.458V14.2045H156.662L164.503 5.54545H167.265L159.935 13.4205L167.265 23H164.708L158.64 14.8864L156.458 17.3409V23H154.344Z" fill="#314C32"/>
</svg>
