<svg width="16" height="16" viewBox="0 0 16 16" fill="none" xmlns="http://www.w3.org/2000/svg">
<path d="M0 1.60059L0 7.2723C9.0658e-05 7.69677 0.168792 8.10382 0.468998 8.40392L7.5968 15.5314C7.89697 15.8314 8.30404 16 8.72848 16C9.15292 16 9.55998 15.8314 9.86015 15.5314L15.5313 9.86046C15.8314 9.56031 16 9.15326 16 8.72884C16 8.30442 15.8314 7.89738 15.5313 7.59722L8.40354 0.469774C8.10421 0.168863 7.69684 -3.37611e-08 7.27266 -3.37611e-08H1.60067C1.17615 -3.37611e-08 0.769011 0.168634 0.468827 0.468804C0.168642 0.768973 0 1.17609 0 1.60059ZM5.59676 3.99588C5.60158 4.20903 5.56376 4.421 5.48553 4.61933C5.4073 4.81767 5.29024 4.99838 5.1412 5.15085C4.99217 5.30332 4.81418 5.42449 4.61767 5.50722C4.42116 5.58996 4.21011 5.63261 3.99689 5.63266C3.78368 5.63272 3.5726 5.59018 3.37605 5.50753C3.17951 5.42489 3.00145 5.30382 2.85234 5.15142C2.70323 4.99903 2.58607 4.81838 2.50775 4.62008C2.42942 4.42178 2.3915 4.20984 2.39621 3.99668C2.40546 3.57848 2.57807 3.18051 2.87708 2.88798C3.1761 2.59544 3.57776 2.43158 3.99609 2.43148C4.41442 2.43137 4.81617 2.59503 5.11533 2.88742C5.41449 3.1798 5.5873 3.57768 5.59676 3.99588Z" fill="#411681"/>
</svg>
