<svg width="100" height="32" viewBox="0 0 100 32" fill="none" xmlns="http://www.w3.org/2000/svg">
<g clip-path="url(#clip0_156_602)">
<path d="M9.51398 16.3052L4.18964 21.7112V29.297H0V0H4.18964V16.3924L20.0754 0H24.876L12.3944 13.1662L25.7488 29.297H20.8609L9.51398 16.3052Z" fill="#FF6060"/>
<path d="M56.2981 26.9428L57.9569 23.8038C59.8768 25.1117 62.8445 26.0708 65.7251 26.0708C69.4782 26.0708 70.9621 24.9373 70.9621 23.0191C70.9621 18.0491 56.909 22.3215 56.909 13.515C56.909 9.50412 60.4877 6.88831 66.1611 6.88831C69.0417 6.88831 72.3583 7.67301 74.2787 8.89376L72.5332 12.0327C70.5256 10.7248 68.3436 10.2888 66.1611 10.2888C62.6701 10.2888 60.9242 11.5967 60.9242 13.3406C60.9242 18.5722 74.9772 14.2997 74.9772 22.9319C74.9772 26.9428 71.3109 29.4714 65.3758 29.4714C61.7971 29.5586 58.1313 28.4251 56.2981 26.9428Z" fill="#FF6060"/>
<path d="M99.6786 15.8692V29.2969H95.8379V26.3324C94.5289 28.3378 91.9976 29.4713 88.5061 29.4713C83.4436 29.4713 80.3014 26.7683 80.3014 22.9319C80.3014 19.3569 82.5706 16.4795 89.2042 16.4795H95.5763V15.6948C95.5763 12.2942 93.5687 10.376 89.6407 10.376C87.0222 10.376 84.3166 11.3351 82.5706 12.7302L80.9123 9.67844C83.182 7.84738 86.4985 6.80103 90.0772 6.80103C96.2744 6.88823 99.6786 9.85279 99.6786 15.8692ZM95.6635 22.4958V19.3569H89.4663C85.4512 19.3569 84.3166 20.9264 84.3166 22.7574C84.3166 24.9373 86.1493 26.3324 89.2042 26.3324C92.2592 26.4196 94.7033 25.1117 95.6635 22.4958Z" fill="#FF6060"/>
<path d="M43.3802 23.455V29.3842L45.9115 27.9019V21.9728L43.3802 23.455Z" fill="#FF6060"/>
<path d="M50.363 16.218L39.9761 10.2016L34.2154 6.88831L28.5419 16.7412L28.6292 25.9836L38.9287 32L39.9761 31.3897V22.6703L44.6022 14.5613L49.3156 17.2643V25.9836L50.363 25.3733V16.218Z" fill="#FF6060"/>
</g>
<defs>
<clipPath id="clip0_156_602">
<rect width="100" height="32" fill="white"/>
</clipPath>
</defs>
</svg>
