<svg xmlns="http://www.w3.org/2000/svg" width="203" height="40" fill="none"><path fill="#B1663C" d="M.93 14.124h5.724q.147.44.86.754.713.294 1.908.461 1.215.147 2.81.147 1.572 0 2.474-.084.922-.105 1.3-.335.377-.252.377-.67 0-.4-.608-.608-.607-.231-2.16-.315-1.551-.084-4.36-.084-2.098 0-3.628-.188-1.51-.21-2.495-.629-.965-.44-1.426-1.09-.461-.67-.461-1.592 0-1.592 1.069-2.619 1.09-1.047 3.27-1.55 2.203-.524 5.494-.524 4.822 0 7.36 1.404 2.558 1.383 2.558 4.002h-5.43q-.105-.691-1.3-1.048-1.196-.377-3.397-.377-2.18 0-3.25.252-1.05.251-1.049.859 0 .315.294.502.294.188 1.006.315.734.105 2.055.146 1.32.042 3.355.042 2.243 0 3.816.23 1.572.21 2.537.65.985.44 1.426 1.132.44.67.44 1.592 0 1.593-1.006 2.598-1.007 1.006-3.187 1.488t-5.704.482a27 27 0 0 1-3.669-.23q-1.656-.231-2.956-.671-1.3-.462-2.202-1.11-.9-.672-1.384-1.488a3.76 3.76 0 0 1-.46-1.844m32.094 5.238q-3.334 0-5.556-.545-2.202-.545-3.313-1.739-1.09-1.194-1.09-3.143t1.09-3.143q1.11-1.215 3.313-1.76 2.222-.565 5.556-.565 3.313 0 5.493.565 2.202.545 3.292 1.76 1.09 1.195 1.09 3.143 0 1.95-1.09 3.143-1.09 1.194-3.292 1.74-2.181.544-5.493.544m0-3.038q1.55 0 2.6-.252 1.048-.271 1.593-.796.545-.545.545-1.34 0-.797-.545-1.342-.524-.544-1.572-.817-1.05-.272-2.621-.272-1.552 0-2.642.272-1.07.273-1.635.817-.546.525-.546 1.341 0 .797.546 1.341.544.525 1.614.796 1.09.252 2.663.252m24.335 3.038q-1.887 0-3.397-.377-1.51-.399-2.579-1.11-1.07-.735-1.635-1.74a4.45 4.45 0 0 1-.566-2.22q0-1.216.566-2.2.565-1.007 1.635-1.719 1.07-.733 2.58-1.11 1.508-.399 3.396-.398 2.264 0 4.026.65 1.782.627 2.788 1.843 1.007 1.215 1.007 2.933 0 1.802-1.007 3.018t-2.788 1.822q-1.763.608-4.026.608m-1.887-3.206q1.425 0 2.432-.251 1.006-.252 1.53-.733a1.67 1.67 0 0 0 .525-1.258q0-1.11-1.175-1.676-1.173-.566-3.312-.566-1.594 0-2.936.189-1.32.189-2.138.691-.797.483-.797 1.362t.797 1.383q.818.482 2.138.67 1.342.19 2.936.19M44.569 8.781h4.738l.294 3.981v10.476h-5.032zm36.514 10.267v-3.814q0-.942-.378-1.592-.377-.65-1.342-.964-.943-.335-2.683-.335-.985 0-1.93.188-.922.168-1.677.42-.733.251-1.174.502l-.042-1.005q.084-.315.566-.943.504-.65 1.447-1.341.944-.713 2.37-1.194 1.446-.503 3.417-.503 1.237 0 2.39.23a6.3 6.3 0 0 1 2.055.775q.922.525 1.468 1.425t.545 2.242v5.909zm-14.006 0V4.59h5.032v14.457zM93.533 3.396V6.54h-5.326V3.396zm-5.179 5.385h5.032v10.267h-5.032zm21.455 6.579h4.948q-.189 1.215-1.216 2.116-1.007.9-2.957 1.404-1.927.482-4.927.482-3.165 0-5.472-.503-2.284-.502-3.523-1.697-1.236-1.194-1.237-3.227 0-2.011 1.195-3.205 1.217-1.215 3.502-1.74 2.286-.523 5.535-.523 3.188 0 5.221.565 2.034.566 2.998 1.844.966 1.258.923 3.415h-14.258q.106.546.587 1.006.504.46 1.531.755 1.049.272 2.788.272 1.805 0 2.957-.252 1.174-.251 1.405-.712m-4.362-3.855q-2.221 0-3.396.482-1.152.482-1.363.963h9.225q-.145-.544-1.174-.984-1.026-.462-3.292-.461m18.047 7.543V5.638h13.21q4.068 0 5.996.796 1.929.797 1.929 2.766 0 1.257-.838 1.928-.819.67-2.37.942-1.53.252-3.69.315l.168-.168q1.572 0 2.914.084t2.349.377q1.006.294 1.572.901.566.608.566 1.676 0 1.3-.922 2.137-.923.839-2.621 1.258-1.699.398-4.005.398zm5.242-3.94h9.016q1.111 0 1.594-.209.503-.21.503-.67a.62.62 0 0 0-.231-.503q-.21-.189-.671-.273-.462-.105-1.195-.104h-9.016zm0-3.77h8.135q1.112 0 1.594-.21.503-.21.503-.67 0-.483-.503-.671-.482-.21-1.594-.21h-8.135zM147.18 4.59h5.032v14.457h-5.032zm26.279 14.457h-5.032V8.78h5.032zm-4.822-5.301.042 1.005q-.063.44-.42 1.027a6.3 6.3 0 0 1-.943 1.215q-.608.629-1.489 1.174a8.8 8.8 0 0 1-2.013.859q-1.132.335-2.516.335a11.3 11.3 0 0 1-2.621-.293 6.3 6.3 0 0 1-2.201-.922 4.45 4.45 0 0 1-1.51-1.74q-.545-1.11-.545-2.765V8.781h5.032v4.337q0 1.152.377 1.781.398.63 1.238.88.839.23 2.159.23 1.237 0 2.286-.356a8.6 8.6 0 0 0 1.866-.9q.817-.525 1.258-1.006m20.884 1.613h4.948q-.189 1.215-1.216 2.116-1.006.9-2.956 1.404-1.93.482-4.928.482-3.167 0-5.472-.503-2.286-.502-3.522-1.697-1.238-1.194-1.238-3.227 0-2.011 1.196-3.205 1.216-1.215 3.501-1.74 2.286-.523 5.535-.523 3.187 0 5.221.565 2.033.566 2.999 1.844.964 1.258.922 3.415h-14.258q.105.546.588 1.006.502.46 1.53.755 1.049.272 2.789.272 1.803 0 2.956-.252 1.174-.251 1.405-.712m-4.361-3.855q-2.223 0-3.397.482-1.153.482-1.363.963h9.226q-.147-.544-1.174-.984-1.029-.462-3.292-.461m11.346-6.914h5.032v14.457h-5.032z"/><path fill="#93532F" d="M6.098 37.143h-.81L4.621 35.4H1.77l-.667 1.743h-.8l2.449-6.286h.905zm-4.05-2.457h2.297L3.19 31.59zm8.188-3.829q.963 0 1.544.495.58.495.581 1.343 0 .848-.59 1.324-.582.467-1.545.467l-.066.047H8.616v2.61h-.763v-6.286zm-.01 2.962q.677 0 1.001-.276.334-.285.334-.848t-.334-.838q-.324-.286-1-.286H8.615v2.248zm.439.152 2.077 3.172h-.905l-1.81-2.752zm9.017 1.562a2.7 2.7 0 0 1-.572.924q-.371.381-.876.581-.495.2-1.087.2-.896 0-1.553-.39a2.7 2.7 0 0 1-1.01-1.124Q14.23 35 14.23 34t.353-1.724a2.65 2.65 0 0 1 1.01-1.114q.658-.4 1.534-.4.61 0 1.087.171.476.162.81.496.343.323.543.8l-.753.352q-.21-.543-.61-.82-.39-.285-1.02-.285-.638 0-1.124.305a2 2 0 0 0-.763.857q-.267.562-.267 1.362 0 .79.258 1.362.257.561.734.867.476.294 1.124.295.63 0 1.096-.315.468-.323.677-.961zm6.877-4.676v6.286h-.762v-6.286zm-4.174 0v6.286h-.763v-6.286zm3.764 2.743v.714h-4.126V33.6zm3.711-2.743v6.286h-.762v-6.286zm6.956 0v.714h-2.192v5.572h-.762V31.57H31.67v-.714zm1.807 6.286v-6.286h4.412v.714h-3.65V33.6h2.84v.714h-2.84v2.115h3.793v.714zm11.484-1.61a2.7 2.7 0 0 1-.571.924q-.372.381-.877.581-.495.2-1.087.2-.896 0-1.553-.39a2.7 2.7 0 0 1-1.01-1.124Q44.656 35 44.656 34t.353-1.724a2.65 2.65 0 0 1 1.01-1.114q.658-.4 1.534-.4.61 0 1.087.171.475.162.81.496.343.323.543.8l-.753.352q-.21-.543-.61-.82-.39-.285-1.02-.285-.638 0-1.124.305a2 2 0 0 0-.763.857q-.267.562-.267 1.362 0 .79.258 1.362.257.561.734.867.476.294 1.124.295.63 0 1.096-.315.468-.323.677-.961zm6.362-4.676v.714h-2.191v5.572h-.763V31.57h-2.192v-.714zm1.807 6.286v-6.286h4.412v.714h-3.65V33.6h2.84v.714h-2.84v2.115h3.793v.714zm12.309-6.286q1.476 0 2.315.82.849.808.849 2.323t-.849 2.333q-.838.81-2.315.81h-2.03v-6.286zm.076 5.572q1.077 0 1.677-.639.61-.647.61-1.79 0-1.142-.61-1.781-.6-.648-1.677-.648h-1.344v4.858zm5.365-5.953q.229 0 .381.124.162.114.248.324.085.2.085.476 0 .315-.114.619-.104.304-.333.562-.23.257-.591.428l-.4-.37q.257-.087.447-.239.201-.153.324-.343.124-.19.162-.39l-.038-.02a.3.3 0 0 1-.095.048.6.6 0 0 1-.172.02.5.5 0 0 1-.238-.067.6.6 0 0 1-.2-.19.62.62 0 0 1-.086-.344q0-.171.086-.314a.66.66 0 0 1 .22-.238.6.6 0 0 1 .314-.086m3.449.381v6.286h-.763v-6.286zm7.47 0v6.286h-.943l-2.63-4.21-.667-1.18h-.01l.038.952v4.438h-.724v-6.286h.943l2.621 4.19.677 1.21h.01l-.039-.962v-4.438zm6.962 0v.714h-2.192v5.572h-.763V31.57H88.76v-.714zm1.806 6.286v-6.286h4.413v.714h-3.65V33.6h2.84v.714h-2.84v2.115h3.793v.714zm2.43-8.59h.8l-.819 1.514h-.61zm6.507 2.304q.962 0 1.544.495.58.495.581 1.343 0 .848-.591 1.324-.582.467-1.544.467l-.066.047h-1.544v2.61h-.763v-6.286zm-.01 2.962q.677 0 1.001-.276.333-.285.334-.848 0-.562-.334-.838-.324-.286-1.001-.286h-1.61v2.248zm.439.152 2.077 3.172h-.905l-1.811-2.752zm4.765-3.114v6.286h-.763v-6.286zm2.534 6.286v-6.286h4.413v.714h-3.65V33.6h2.84v.714h-2.84v2.115h3.793v.714zm11.367-6.286V34.8q0 1.21-.638 1.829-.639.61-1.83.61-1.182 0-1.83-.61-.639-.62-.639-1.829v-3.943h.763v3.752q0 .981.41 1.448.42.467 1.296.467t1.286-.467q.42-.467.42-1.448v-3.752zm4.794 0q.962 0 1.544.495t.581 1.343q0 .848-.591 1.324-.58.467-1.544.467l-.066.047h-1.544v2.61h-.763v-6.286zm-.01 2.962q.677 0 1.001-.276.333-.285.334-.848 0-.562-.334-.838-.324-.286-1.001-.286h-1.61v2.248zm.439.152 2.078 3.172h-.906l-1.811-2.752z"/></svg>