<svg width="784" height="951" viewBox="0 0 784 951" fill="none" xmlns="http://www.w3.org/2000/svg">
<g filter="url(#filter0_dii_156_534)">
<path d="M537.805 247.905C540.021 251.209 540.184 254.594 538.294 258.059L425.896 456.356C424.466 458.846 422.248 460.373 419.24 460.935C417.69 461.199 416.137 461.047 414.581 460.478C413.574 460.109 412.559 459.478 411.537 458.585L349.989 402.557L292.627 432.541C290.275 433.863 287.772 434.038 285.117 433.067C283.836 432.598 282.85 432.03 282.161 431.362C280.656 430.084 279.677 428.505 279.223 426.625C278.77 424.744 278.878 422.887 279.549 421.054L302.28 358.917L247.178 308.676C244.26 306.154 243.352 302.964 244.452 299.106C245.485 295.432 247.938 293.264 251.813 292.603L528.569 244.214C532.477 243.462 535.556 244.692 537.805 247.905ZM415.46 436.795L512.34 266.022L273.853 307.68L313.098 343.391L463.729 298.896L358.014 384.45L415.46 436.795Z" fill="#2F0059"/>
</g>
<g filter="url(#filter1_di_156_534)">
<path d="M303.882 474.144C163.882 689.144 278.883 851.644 505.383 827.644" stroke="#2F0059" stroke-width="4" stroke-dasharray="18 18"/>
</g>
<defs>
<filter id="filter0_dii_156_534" x="0" y="0" width="783.599" height="705.061" filterUnits="userSpaceOnUse" color-interpolation-filters="sRGB">
<feFlood flood-opacity="0" result="BackgroundImageFix"/>
<feColorMatrix in="SourceAlpha" type="matrix" values="0 0 0 0 0 0 0 0 0 0 0 0 0 0 0 0 0 0 127 0" result="hardAlpha"/>
<feOffset/>
<feGaussianBlur stdDeviation="122"/>
<feComposite in2="hardAlpha" operator="out"/>
<feColorMatrix type="matrix" values="0 0 0 0 0.575665 0 0 0 0 0.328251 0 0 0 0 0.94391 0 0 0 1 0"/>
<feBlend mode="normal" in2="BackgroundImageFix" result="effect1_dropShadow_156_534"/>
<feBlend mode="normal" in="SourceGraphic" in2="effect1_dropShadow_156_534" result="shape"/>
<feColorMatrix in="SourceAlpha" type="matrix" values="0 0 0 0 0 0 0 0 0 0 0 0 0 0 0 0 0 0 127 0" result="hardAlpha"/>
<feOffset dy="-10"/>
<feGaussianBlur stdDeviation="5.5"/>
<feComposite in2="hardAlpha" operator="arithmetic" k2="-1" k3="1"/>
<feColorMatrix type="matrix" values="0 0 0 0 0.421115 0 0 0 0 0.149917 0 0 0 0 0.663462 0 0 0 1 0"/>
<feBlend mode="normal" in2="shape" result="effect2_innerShadow_156_534"/>
<feColorMatrix in="SourceAlpha" type="matrix" values="0 0 0 0 0 0 0 0 0 0 0 0 0 0 0 0 0 0 127 0" result="hardAlpha"/>
<feOffset dx="-1" dy="-3"/>
<feGaussianBlur stdDeviation="7.5"/>
<feComposite in2="hardAlpha" operator="arithmetic" k2="-1" k3="1"/>
<feColorMatrix type="matrix" values="0 0 0 0 0.843453 0 0 0 0 0.668269 0 0 0 0 1 0 0 0 0.43 0"/>
<feBlend mode="normal" in2="effect2_innerShadow_156_534" result="effect3_innerShadow_156_534"/>
</filter>
<filter id="filter1_di_156_534" x="207.858" y="440.052" width="330.735" height="424.945" filterUnits="userSpaceOnUse" color-interpolation-filters="sRGB">
<feFlood flood-opacity="0" result="BackgroundImageFix"/>
<feColorMatrix in="SourceAlpha" type="matrix" values="0 0 0 0 0 0 0 0 0 0 0 0 0 0 0 0 0 0 127 0" result="hardAlpha"/>
<feOffset/>
<feGaussianBlur stdDeviation="16.5"/>
<feComposite in2="hardAlpha" operator="out"/>
<feColorMatrix type="matrix" values="0 0 0 0 0.600108 0 0 0 0 0.33143 0 0 0 0 1 0 0 0 1 0"/>
<feBlend mode="normal" in2="BackgroundImageFix" result="effect1_dropShadow_156_534"/>
<feBlend mode="normal" in="SourceGraphic" in2="effect1_dropShadow_156_534" result="shape"/>
<feColorMatrix in="SourceAlpha" type="matrix" values="0 0 0 0 0 0 0 0 0 0 0 0 0 0 0 0 0 0 127 0" result="hardAlpha"/>
<feOffset dx="-2" dy="-2"/>
<feGaussianBlur stdDeviation="2"/>
<feComposite in2="hardAlpha" operator="arithmetic" k2="-1" k3="1"/>
<feColorMatrix type="matrix" values="0 0 0 0 0.443137 0 0 0 0 0.207843 0 0 0 0 0.658824 0 0 0 1 0"/>
<feBlend mode="normal" in2="shape" result="effect2_innerShadow_156_534"/>
</filter>
</defs>
</svg>
