<svg width="110" height="85" viewBox="0 0 110 85" fill="none" xmlns="http://www.w3.org/2000/svg">
<g filter="url(#filter0_ii_168_504)">
<path fill-rule="evenodd" clip-rule="evenodd" d="M54.9999 84.1168C85.1396 84.1168 109.999 70.134 109.999 51.7642C109.999 33.3944 85.1396 19.4116 54.9999 19.4116C24.8602 19.4116 0.000488281 33.3944 0.000488281 51.7642C0.000488281 70.134 24.8602 84.1168 54.9999 84.1168ZM54.9999 25.8821C82.0402 25.8821 103.529 37.9691 103.529 51.7642C103.529 65.5594 82.0402 77.6463 54.9999 77.6463C27.9596 77.6463 6.47101 65.5594 6.47101 51.7642C6.47101 37.9691 27.9596 25.8821 54.9999 25.8821Z" fill="#2F0059"/>
<path d="M51.7647 3.23526C51.7647 2.37722 52.1056 1.55432 52.7123 0.947586C53.3191 0.340857 54.142 0 55 0C55.858 0 56.681 0.340857 57.2877 0.947586C57.8944 1.55432 58.2353 2.37722 58.2353 3.23526V22.6468C58.2353 23.5049 57.8944 24.3278 57.2877 24.9345C56.681 25.5412 55.858 25.8821 55 25.8821C54.142 25.8821 53.3191 25.5412 52.7123 24.9345C52.1056 24.3278 51.7647 23.5049 51.7647 22.6468V3.23526ZM77.7115 5.83641C77.9042 5.02007 78.4064 4.31049 79.1122 3.8573C79.818 3.40411 80.6722 3.24275 81.4947 3.40725C82.3172 3.57174 83.0437 4.04924 83.5209 4.73903C83.9981 5.42881 84.1887 6.27698 84.0526 7.10463L80.8174 23.2809C80.6247 24.0973 80.1225 24.8068 79.4167 25.26C78.7109 25.7132 77.8567 25.8746 77.0342 25.7101C76.2117 25.5456 75.4852 25.0681 75.008 24.3783C74.5308 23.6885 74.3402 22.8404 74.4763 22.0127L77.7115 5.83641ZM32.2885 5.83641C32.0958 5.02007 31.5936 4.31049 30.8878 3.8573C30.182 3.40411 29.3278 3.24275 28.5053 3.40725C27.6828 3.57174 26.9563 4.04924 26.4791 4.73903C26.0019 5.42881 25.8113 6.27698 25.9474 7.10463L29.1826 23.2809C29.3753 24.0973 29.8775 24.8068 30.5833 25.26C31.2891 25.7132 32.1434 25.8746 32.9658 25.7101C33.7883 25.5456 34.5148 25.0681 34.992 24.3783C35.4692 23.6885 35.6598 22.8404 35.5237 22.0127L32.2885 5.83641ZM6.0117 14.5134C5.57067 13.7772 4.85524 13.2463 4.02281 13.0376C3.19038 12.8289 2.30913 12.9594 1.57293 13.4004C0.836726 13.8415 0.305878 14.5569 0.0971629 15.3893C-0.111552 16.2218 0.0189639 17.103 0.459999 17.8392L10.1658 34.0155C10.6068 34.7517 11.3222 35.2826 12.1547 35.4913C12.9871 35.7 13.8684 35.5695 14.6046 35.1284C15.3408 34.6874 15.8716 33.972 16.0803 33.1396C16.289 32.3071 16.1585 31.4259 15.7175 30.6897L6.0117 14.5134ZM103.988 14.5134C104.207 14.1488 104.495 13.8309 104.836 13.5777C105.177 13.3245 105.565 13.141 105.977 13.0376C106.389 12.9343 106.818 12.9131 107.238 12.9754C107.659 13.0376 108.063 13.1821 108.427 13.4004C108.792 13.6188 109.11 13.9069 109.363 14.2481C109.616 14.5894 109.799 14.9772 109.903 15.3893C110.006 15.8015 110.027 16.23 109.965 16.6504C109.903 17.0707 109.758 17.4747 109.54 17.8392L99.8342 34.0155C99.6159 34.38 99.3278 34.698 98.9866 34.9512C98.6453 35.2044 98.2575 35.3879 97.8453 35.4913C97.4332 35.5946 97.0047 35.6158 96.5843 35.5535C96.164 35.4913 95.76 35.3468 95.3955 35.1284C95.0309 34.9101 94.713 34.622 94.4598 34.2808C94.2066 33.9395 94.023 33.5517 93.9197 33.1396C93.8163 32.7274 93.7952 32.2989 93.8575 31.8785C93.9197 31.4582 94.0641 31.0542 94.2825 30.6897L103.988 14.5134ZM74.4116 48.5289C74.4116 53.6772 72.3664 58.6146 68.7261 62.2549C65.0857 65.8953 60.1483 67.9405 55 67.9405C49.8517 67.9405 44.9143 65.8953 41.274 62.2549C37.6336 58.6146 35.5884 53.6772 35.5884 48.5289C35.5884 43.3806 37.6336 38.4432 41.274 34.8028C44.9143 31.1625 49.8517 29.1173 55 29.1173C60.1483 29.1173 65.0857 31.1625 68.7261 34.8028C72.3664 38.4432 74.4116 43.3806 74.4116 48.5289Z" fill="#2F0059"/>
</g>
<defs>
<filter id="filter0_ii_168_504" x="0" y="-6" width="110" height="90.1168" filterUnits="userSpaceOnUse" color-interpolation-filters="sRGB">
<feFlood flood-opacity="0" result="BackgroundImageFix"/>
<feBlend mode="normal" in="SourceGraphic" in2="BackgroundImageFix" result="shape"/>
<feColorMatrix in="SourceAlpha" type="matrix" values="0 0 0 0 0 0 0 0 0 0 0 0 0 0 0 0 0 0 127 0" result="hardAlpha"/>
<feOffset dy="-6"/>
<feGaussianBlur stdDeviation="5.5"/>
<feComposite in2="hardAlpha" operator="arithmetic" k2="-1" k3="1"/>
<feColorMatrix type="matrix" values="0 0 0 0 0.421115 0 0 0 0 0.149917 0 0 0 0 0.663462 0 0 0 1 0"/>
<feBlend mode="normal" in2="shape" result="effect1_innerShadow_168_504"/>
<feColorMatrix in="SourceAlpha" type="matrix" values="0 0 0 0 0 0 0 0 0 0 0 0 0 0 0 0 0 0 127 0" result="hardAlpha"/>
<feOffset dy="-6"/>
<feGaussianBlur stdDeviation="5.5"/>
<feComposite in2="hardAlpha" operator="arithmetic" k2="-1" k3="1"/>
<feColorMatrix type="matrix" values="0 0 0 0 0.843453 0 0 0 0 0.668269 0 0 0 0 1 0 0 0 0.43 0"/>
<feBlend mode="normal" in2="effect1_innerShadow_168_504" result="effect2_innerShadow_168_504"/>
</filter>
</defs>
</svg>
