<svg width="40" height="42" viewBox="0 0 40 42" fill="none" xmlns="http://www.w3.org/2000/svg">
<g clip-path="url(#clip0_61_367)">
<path d="M2.51437 1.80818L25.6391 0.0952733C28.4795 -0.149204 29.2094 0.0156614 30.9953 1.31782L38.377 6.53365C39.5947 7.43054 40 7.67518 40 8.65183V37.2568C40 39.0495 39.3508 40.1098 37.0788 40.272L10.225 41.9025C8.51984 41.9835 7.70781 41.7391 6.81484 40.5975L1.37906 33.5082C0.404063 32.2032 0 31.2264 0 30.0848V4.65854C0 3.19293 0.649219 1.97039 2.51437 1.80818Z" fill="#030019"/>
<path d="M25.6391 0.0952733L2.51437 1.80818C0.649219 1.97039 0 3.19293 0 4.65854V30.085C0 31.2265 0.403906 32.2032 1.37906 33.5082L6.81484 40.5975C7.70781 41.7391 8.51984 41.9835 10.225 41.9025L37.0788 40.272C39.3494 40.1098 40 39.0495 40 37.2568V8.65183C40 7.72548 39.635 7.45859 38.5609 6.6678L38.3758 6.53365L30.9953 1.31782C29.2094 0.0156614 28.4797 -0.149204 25.6391 0.0952733ZM10.8323 8.18372C8.63969 8.33182 8.14234 8.36535 6.89703 7.34952L3.73062 4.82341C3.40875 4.4965 3.57031 4.08841 4.38109 4.00738L26.6114 2.37832C28.4781 2.21486 29.4505 2.86727 30.1805 3.43741L33.9931 6.20815C34.1561 6.29043 34.5616 6.77813 34.0739 6.77813L11.1166 8.16413L10.8323 8.18372ZM8.27609 37.0123V12.7288C8.27609 11.6683 8.60063 11.1794 9.57297 11.0969L35.9406 9.54872C36.835 9.4677 37.2391 10.0377 37.2391 11.0969V35.2182C37.2391 36.2787 37.0759 37.1756 35.6161 37.2568L10.3837 38.7238C8.92391 38.8049 8.27609 38.3173 8.27609 37.0123ZM33.1839 14.0308C33.3455 14.7644 33.1839 15.498 32.4525 15.5818L31.2364 15.8235V33.7525C30.1805 34.3225 29.2081 34.6481 28.3958 34.6481C27.0977 34.6481 26.773 34.24 25.8006 33.0189L17.8478 20.4692V32.611L20.3634 33.1823C20.3634 33.1823 20.3634 34.6495 18.3339 34.6495L12.738 34.975C12.575 34.6481 12.738 33.8335 13.3052 33.6715L14.7662 33.2648V17.2111L12.7381 17.0462C12.575 16.3128 12.9803 15.2535 14.1172 15.1711L20.1213 14.766L28.3959 27.4777V16.2317L26.2869 15.9885C26.1239 15.0901 26.773 14.4376 27.5837 14.358L33.1839 14.0308Z" fill="#E8E8E8"/>
</g>
<defs>
<clipPath id="clip0_61_367">
<rect width="40" height="42" fill="white"/>
</clipPath>
</defs>
</svg>
