<svg width="110" height="110" viewBox="0 0 110 110" fill="none" xmlns="http://www.w3.org/2000/svg">
<g filter="url(#filter0_ii_168_463)">
<path d="M103.056 42.6348C101.205 40.7 99.2897 38.7062 98.5679 36.9531C97.9 35.3473 97.8607 32.6857 97.8214 30.1076C97.7478 25.3147 97.6692 19.8835 93.8929 16.1071C90.1165 12.3308 84.6853 12.2522 79.8924 12.1786C77.3143 12.1393 74.6527 12.1 73.0469 11.4321C71.2987 10.7103 69.3 8.79509 67.3652 6.94375C63.9768 3.68795 60.1268 0 55 0C49.8732 0 46.0281 3.68795 42.6348 6.94375C40.7 8.79509 38.7062 10.7103 36.9531 11.4321C35.3571 12.1 32.6857 12.1393 30.1076 12.1786C25.3147 12.2522 19.8835 12.3308 16.1071 16.1071C12.3308 19.8835 12.2768 25.3147 12.1786 30.1076C12.1393 32.6857 12.1 35.3473 11.4321 36.9531C10.7103 38.7013 8.79509 40.7 6.94375 42.6348C3.68795 46.0232 0 49.8732 0 55C0 60.1268 3.68795 63.9719 6.94375 67.3652C8.79509 69.3 10.7103 71.2937 11.4321 73.0469C12.1 74.6527 12.1393 77.3143 12.1786 79.8924C12.2522 84.6853 12.3308 90.1165 16.1071 93.8929C19.8835 97.6692 25.3147 97.7478 30.1076 97.8214C32.6857 97.8607 35.3473 97.9 36.9531 98.5679C38.7013 99.2897 40.7 101.205 42.6348 103.056C46.0232 106.312 49.8732 110 55 110C60.1268 110 63.9719 106.312 67.3652 103.056C69.3 101.205 71.2937 99.2897 73.0469 98.5679C74.6527 97.9 77.3143 97.8607 79.8924 97.8214C84.6853 97.7478 90.1165 97.6692 93.8929 93.8929C97.6692 90.1165 97.7478 84.6853 97.8214 79.8924C97.8607 77.3143 97.9 74.6527 98.5679 73.0469C99.2897 71.2987 101.205 69.3 103.056 67.3652C106.312 63.9768 110 60.1268 110 55C110 49.8732 106.312 46.0281 103.056 42.6348ZM77.4223 45.9938L49.9223 73.4938C49.5575 73.859 49.1242 74.1488 48.6473 74.3465C48.1703 74.5442 47.6591 74.6459 47.1429 74.6459C46.6266 74.6459 46.1154 74.5442 45.6385 74.3465C45.1615 74.1488 44.7282 73.859 44.3634 73.4938L32.5777 61.708C32.2127 61.343 31.9231 60.9097 31.7256 60.4328C31.5281 59.9559 31.4264 59.4448 31.4264 58.9286C31.4264 58.4124 31.5281 57.9012 31.7256 57.4243C31.9231 56.9474 32.2127 56.5141 32.5777 56.1491C33.3148 55.4119 34.3146 54.9978 35.3571 54.9978C35.8733 54.9978 36.3845 55.0995 36.8614 55.297C37.3383 55.4946 37.7716 55.7841 38.1366 56.1491L47.1429 65.1603L71.8634 40.4348C72.2284 40.0698 72.6617 39.7803 73.1386 39.5827C73.6155 39.3852 74.1267 39.2835 74.6429 39.2835C75.159 39.2835 75.6702 39.3852 76.1471 39.5827C76.624 39.7803 77.0573 40.0698 77.4223 40.4348C77.7873 40.7998 78.0769 41.2332 78.2744 41.71C78.4719 42.187 78.5736 42.6981 78.5736 43.2143C78.5736 43.7305 78.4719 44.2416 78.2744 44.7185C78.0769 45.1954 77.7873 45.6287 77.4223 45.9938Z" fill="#2F0059"/>
</g>
<defs>
<filter id="filter0_ii_168_463" x="-1" y="-10" width="111" height="120" filterUnits="userSpaceOnUse" color-interpolation-filters="sRGB">
<feFlood flood-opacity="0" result="BackgroundImageFix"/>
<feBlend mode="normal" in="SourceGraphic" in2="BackgroundImageFix" result="shape"/>
<feColorMatrix in="SourceAlpha" type="matrix" values="0 0 0 0 0 0 0 0 0 0 0 0 0 0 0 0 0 0 127 0" result="hardAlpha"/>
<feOffset dy="-10"/>
<feGaussianBlur stdDeviation="5.5"/>
<feComposite in2="hardAlpha" operator="arithmetic" k2="-1" k3="1"/>
<feColorMatrix type="matrix" values="0 0 0 0 0.421115 0 0 0 0 0.149917 0 0 0 0 0.663462 0 0 0 1 0"/>
<feBlend mode="normal" in2="shape" result="effect1_innerShadow_168_463"/>
<feColorMatrix in="SourceAlpha" type="matrix" values="0 0 0 0 0 0 0 0 0 0 0 0 0 0 0 0 0 0 127 0" result="hardAlpha"/>
<feOffset dx="-1" dy="-3"/>
<feGaussianBlur stdDeviation="7.5"/>
<feComposite in2="hardAlpha" operator="arithmetic" k2="-1" k3="1"/>
<feColorMatrix type="matrix" values="0 0 0 0 0.843453 0 0 0 0 0.668269 0 0 0 0 1 0 0 0 0.43 0"/>
<feBlend mode="normal" in2="effect1_innerShadow_168_463" result="effect2_innerShadow_168_463"/>
</filter>
</defs>
</svg>
