<svg width="130" height="60" viewBox="0 0 130 60" fill="none" xmlns="http://www.w3.org/2000/svg">
<g clip-path="url(#clip0_122_14)">
<path d="M0 0.5L5 55.5L30 60.5L55 55.5L60 0.5H0ZM49.3 18H18.2L18.925 25.5H48.575L46.57 48.8375L29.975 53L13.3875 48.885L12.325 38H19.875L20.35 43L30 44.925L39.6 43L40.325 33H12.1L10 10.5H50L49.3 18Z" fill="#E65100"/>
</g>
<path d="M70 0L75.26 53.502L100 60L124.893 53.505L130 0H70ZM114.333 44.166L100.023 47.778H100L85.6767 44.166L84.6867 34.665H91.7133L92.2133 39.243L99.9967 41.16L107.797 39.24L108.613 30.09H84.38L83.7567 24.072H109.223L109.803 18.054H83.08L82.4933 12.036H117.513L114.333 44.166Z" fill="#0277BD"/>
<defs>
<clipPath id="clip0_122_14">
<rect width="60" height="60" fill="white"/>
</clipPath>
</defs>
</svg>
